<?xml version="1.0" encoding="UTF-8" standalone="no"?>
<svg
   xmlns:dc="http://purl.org/dc/elements/1.1/"
   xmlns:cc="http://creativecommons.org/ns#"
   xmlns:rdf="http://www.w3.org/1999/02/22-rdf-syntax-ns#"
   xmlns:svg="http://www.w3.org/2000/svg"
   xmlns="http://www.w3.org/2000/svg"
   xmlns:xlink="http://www.w3.org/1999/xlink"
   xmlns:sodipodi="http://sodipodi.sourceforge.net/DTD/sodipodi-0.dtd"
   xmlns:inkscape="http://www.inkscape.org/namespaces/inkscape"
   width="379.70874mm"
   height="89.273781mm"
   viewBox="0 0 379.70874 89.273781"
   version="1.1"
   id="svg8"
   inkscape:version="1.0.1 (3bc2e81, 2020-09-07)"
   sodipodi:docname="dracul.svg">
  <defs
     id="defs2">
    <rect
       x="1163.952"
       y="1039.3912"
       width="94.862213"
       height="175.71048"
       id="rect138" />
    <rect
       x="300.0686"
       y="1080.6458"
       width="590.91205"
       height="93.09388"
       id="rect132" />
    <linearGradient
       inkscape:collect="always"
       xlink:href="#linearGradient2790"
       id="linearGradient4582"
       gradientUnits="userSpaceOnUse"
       gradientTransform="matrix(1.690498,0,0,2.124471,-401.1527,-415.2049)"
       x1="293.3335"
       y1="378.89786"
       x2="604.74036"
       y2="412.42917" />
    <linearGradient
       inkscape:collect="always"
       id="linearGradient2790">
      <stop
         style="stop-color:#f9f9f9;stop-opacity:1;"
         offset="0"
         id="stop2792" />
      <stop
         style="stop-color:#f9f9f9;stop-opacity:0;"
         offset="1"
         id="stop2794" />
    </linearGradient>
    <radialGradient
       inkscape:collect="always"
       xlink:href="#linearGradient5487"
       id="radialGradient6396"
       gradientUnits="userSpaceOnUse"
       gradientTransform="matrix(1,0,0,1.212649,0,-123.7279)"
       cx="413.75797"
       cy="581.84155"
       fx="413.75797"
       fy="581.84155"
       r="11.214005" />
    <linearGradient
       inkscape:collect="always"
       id="linearGradient5487">
      <stop
         style="stop-color:#ececec;stop-opacity:1;"
         offset="0"
         id="stop5489" />
      <stop
         style="stop-color:#ececec;stop-opacity:0;"
         offset="1"
         id="stop5491" />
    </linearGradient>
    <radialGradient
       inkscape:collect="always"
       xlink:href="#linearGradient5487"
       id="radialGradient6394"
       gradientUnits="userSpaceOnUse"
       gradientTransform="matrix(1,0,0,0.93076,0,40.54238)"
       cx="382.60034"
       cy="585.53363"
       fx="382.60034"
       fy="585.53363"
       r="11.181895" />
  </defs>
  <sodipodi:namedview
     id="base"
     pagecolor="#ffffff"
     bordercolor="#666666"
     borderopacity="1.0"
     inkscape:pageopacity="0.0"
     inkscape:pageshadow="2"
     inkscape:zoom="0.35"
     inkscape:cx="591.84551"
     inkscape:cy="-31.293664"
     inkscape:document-units="mm"
     inkscape:current-layer="layer1"
     inkscape:document-rotation="0"
     showgrid="false"
     inkscape:window-width="1683"
     inkscape:window-height="747"
     inkscape:window-x="163"
     inkscape:window-y="256"
     inkscape:window-maximized="0" />
  <metadata
     id="metadata5">
    <rdf:RDF>
      <cc:Work
         rdf:about="">
        <dc:format>image/svg+xml</dc:format>
        <dc:type
           rdf:resource="http://purl.org/dc/dcmitype/StillImage" />
        <dc:title></dc:title>
      </cc:Work>
    </rdf:RDF>
  </metadata>
  <g
     inkscape:label="Layer 1"
     inkscape:groupmode="layer"
     id="layer1"
     transform="translate(50.759125,-156.44645)">
    <g
       id="g68"
       transform="matrix(0.35277778,0,0,0.35277778,-50.759125,156.44645)">
      <text
         xml:space="preserve"
         id="text136"
         style="font-style:normal;font-weight:normal;font-size:30px;line-height:1.25;font-family:sans-serif;white-space:pre;shape-inside:url(#rect138);fill:#000000;fill-opacity:1;stroke:none;"
         transform="translate(-24.040717,-490.06685)" />
      <g
         id="g486"
         transform="translate(-24.040717,-490.06685)">
        <text
           xml:space="preserve"
           id="text130"
           style="font-style:normal;font-variant:normal;font-weight:normal;font-stretch:normal;font-size:64.5259px;line-height:1.25;font-family:'Ubuntu Mono';-inkscape-font-specification:'Ubuntu Mono';white-space:pre;shape-inside:url(#rect132);fill:#000000;fill-opacity:1;stroke:none;"
           transform="matrix(1.6089894,0,0,3.0953098,-103.46412,-2818.4686)"><tspan
             x="300.06836"
             y="1140.8293"><tspan
               style="shape-inside:url(#rect132)">DRACUL MODULES</tspan></tspan></text>
        <g
           id="g6398"
           inkscape:export-filename="/home/lamatin/Projekt_Kliparty/hotove/KLIPARTY/SVG/06.Zvirata/netopyr.png"
           inkscape:export-xdpi="90"
           inkscape:export-ydpi="90"
           transform="matrix(0.56649763,0,0,0.68349594,-12.497443,259.43531)">
          <path
             id="path1352"
             d="m 66.46979,635.12299 c 31.273446,-2.24252 64.6457,-0.91161 92.02688,21.71196 15.50513,36.7546 39.60629,-5.25902 61.69711,-4.89939 27.23736,-5.138 55.79071,5.83338 70.48509,39.29264 12.12212,35.16669 34.24408,-20.25601 54.30869,-17.4925 36.95842,-13.32123 77.59779,2.29172 107.33001,33.05702 -0.97881,-44.70081 29.7049,-73.64587 54.84614,-95.15664 11.5157,-18.18726 47.34242,0.27462 33.70737,-33.88121 -1.58333,-34.38742 3.79285,-75.1746 28.42624,-93.40167 16.49774,-22.91247 50.52852,0.16627 49.25302,-40.95039 13.05889,-40.76728 36.1213,-73.83097 58.46715,-105.97354 -23.56155,7.70005 -44.17845,27.05277 -68.69054,30.77444 -31.54612,11.32592 -65.97066,16.93941 -97.11876,0.36709 3.19299,30.33886 0.0216,62.33933 -13.74258,87.57985 -15.80665,32.57036 -33.13501,65.85815 -56.90968,88.69255 -17.20436,-0.60837 -25.87166,-29.17949 -37.14164,-44.16108 4.94799,24.15488 -5.38314,29.80395 -21.5988,29.15694 -13.31628,16.18957 -23.76913,4.4747 -34.38637,-9.77532 -1.8921,21.04803 17.87146,63.89393 -1.41619,69.19197 -32.15263,3.15891 -64.44521,-6.46887 -95.10795,-18.7257 -26.39308,-12.06189 -50.33737,-31.93066 -73.51506,-52.3076 -14.41551,38.97181 -42.90291,63.89472 -68.79648,87.89906 -13.550068,10.73752 -27.441888,20.74006 -41.802837,29.40439"
             style="fill:#7c6969;fill-opacity:1;fill-rule:evenodd;stroke:none;stroke-width:1px;stroke-linecap:butt;stroke-linejoin:miter;stroke-opacity:0.940541" />
          <path
             style="fill:#000000;fill-opacity:1;fill-rule:evenodd;stroke:none;stroke-width:1px;stroke-linecap:butt;stroke-linejoin:miter;stroke-opacity:0.940541"
             d="m 64.498345,636.00244 c 31.273446,-2.24252 64.645695,-0.91161 92.026875,21.71196 15.50513,36.7546 39.60629,-5.25901 61.69712,-4.89939 27.23735,-5.138 55.79071,5.83339 70.48509,39.29265 12.12211,35.16668 34.24407,-20.25602 54.30868,-17.49251 36.95842,-13.32123 77.59779,2.29172 107.33001,33.05703 -0.97881,-44.70082 29.7049,-73.64587 54.84614,-95.15665 11.5157,-18.18725 47.34243,0.27462 33.70737,-33.88121 -1.58333,-34.38741 3.79285,-75.17459 28.42624,-93.40167 16.49775,-22.91247 50.52852,0.16627 49.25303,-40.95038 13.05889,-40.76728 36.12129,-73.83097 58.46714,-105.97354 -23.56154,7.70005 -44.17844,27.05276 -68.69054,30.77443 -31.54612,11.32593 -65.97065,16.93941 -97.11875,0.36709 3.19298,30.33887 0.0216,62.33933 -13.74258,87.57986 -15.80666,32.57035 -33.13501,65.85814 -56.90969,88.69255 -17.20435,-0.60837 -25.87165,-29.17949 -37.14164,-44.16109 4.948,24.15489 -5.38313,29.80395 -21.59879,29.15695 -13.31629,16.18957 -23.76913,4.4747 -34.38637,-9.77532 -1.89211,21.04802 17.87145,63.89392 -1.41619,69.19196 -32.15264,3.15892 -64.44522,-6.46886 -95.10795,-18.7257 -26.39309,-12.06188 -50.33737,-31.93066 -73.51506,-52.3076 -14.41552,38.97181 -42.90292,63.89472 -68.79649,87.89907 -13.550063,10.73751 -27.441883,20.74006 -41.802832,29.40438"
             id="path1898" />
          <path
             id="path1901"
             d="m 66.469773,623.36199 c 31.004164,-2.08766 64.089057,-0.84867 91.234467,20.21275 15.37162,34.21674 39.26527,-4.89585 61.16586,-4.56107 27.00284,-4.78324 55.31033,5.4306 69.87818,36.57952 12.01775,32.73843 33.94922,-18.85738 53.84106,-16.28467 36.64018,-12.4014 76.92962,2.13349 106.40584,30.77446 -0.97039,-41.61423 29.44912,-68.56068 54.37387,-88.58614 11.41654,-16.93142 46.93478,0.25566 33.41713,-31.54173 -1.56969,-32.01299 3.7602,-69.98383 28.18148,-86.95233 16.35568,-21.33038 50.09344,0.15479 48.82893,-38.12278 12.94643,-37.95231 35.81027,-68.733 57.9637,-98.65612 -23.35866,7.16836 -43.79805,25.1848 -68.09908,28.64949 -31.27448,10.54387 -65.40261,15.76975 -96.2825,0.34174 3.1655,28.24397 0.0214,58.03482 -13.62426,81.53248 -15.67054,30.32143 -32.84968,61.31069 -56.41964,82.56839 -17.05621,-0.56636 -25.64889,-27.16468 -36.82184,-41.11178 4.9054,22.48699 -5.33677,27.74601 -21.41281,27.14366 -13.20163,15.07169 -23.56445,4.16574 -34.09028,-9.10033 -1.87582,19.59468 17.71756,59.48207 -1.404,64.41429 -31.87578,2.94081 -63.8903,-6.0222 -94.28902,-17.43271 -26.16581,-11.22901 -49.90393,-29.72584 -72.88204,-48.69576 -14.2914,36.28082 -42.53349,59.48282 -68.20411,81.82967 -13.433396,9.9961 -27.205597,19.30796 -41.442886,27.37403"
             style="opacity:0.0934579;fill:url(#linearGradient4582);fill-opacity:1;fill-rule:evenodd;stroke:none;stroke-width:1px;stroke-linecap:butt;stroke-linejoin:miter;stroke-opacity:0.940541" />
          <g
             transform="translate(-4,-18)"
             id="g6386">
            <path
               style="fill:#ffff00;fill-opacity:1;fill-rule:evenodd;stroke:#000000;stroke-width:2.97964px;stroke-linecap:butt;stroke-linejoin:miter;stroke-opacity:1"
               d="m 402.54396,595.4402 10.00064,-5.17396 12.42737,-13.87709 -14.84457,-8.14625 z"
               id="path1338"
               sodipodi:nodetypes="ccccc" />
            <path
               sodipodi:nodetypes="ccccc"
               id="path4588"
               d="m 402.54396,595.4402 10.00064,-5.17396 12.42737,-13.87709 -14.84457,-8.14625 z"
               style="opacity:0.481308;fill:url(#radialGradient6396);fill-opacity:1;fill-rule:evenodd;stroke:none;stroke-width:2.97964px;stroke-linecap:butt;stroke-linejoin:miter;stroke-opacity:1" />
          </g>
          <g
             transform="translate(-4,-14)"
             id="g6390">
            <path
               sodipodi:nodetypes="ccccc"
               id="path2795"
               d="m 393.78225,595.94127 -7.15641,-10.40765 -14.31281,-10.40767 -0.89457,20.81532 z"
               style="fill:#ffff00;fill-opacity:1;fill-rule:evenodd;stroke:#000000;stroke-width:2.97964px;stroke-linecap:butt;stroke-linejoin:miter;stroke-opacity:1" />
            <path
               style="opacity:0.481308;fill:url(#radialGradient6394);fill-opacity:1;fill-rule:evenodd;stroke:none;stroke-width:2.97964px;stroke-linecap:butt;stroke-linejoin:miter;stroke-opacity:1"
               d="m 393.78225,595.94127 -7.15641,-10.40765 -14.31281,-10.40767 -0.89457,20.81532 z"
               id="path4590"
               sodipodi:nodetypes="ccccc" />
          </g>
        </g>
      </g>
    </g>
  </g>
</svg>
