<?xml version="1.0" encoding="UTF-8" standalone="no"?>
<svg
   xmlns:dc="http://purl.org/dc/elements/1.1/"
   xmlns:cc="http://creativecommons.org/ns#"
   xmlns:rdf="http://www.w3.org/1999/02/22-rdf-syntax-ns#"
   xmlns:svg="http://www.w3.org/2000/svg"
   xmlns="http://www.w3.org/2000/svg"
   xmlns:sodipodi="http://sodipodi.sourceforge.net/DTD/sodipodi-0.dtd"
   xmlns:inkscape="http://www.inkscape.org/namespaces/inkscape"
   version="1.1"
   id="svg140"
   width="107.85045"
   height="80.0028"
   viewBox="0 0 107.85045 80.0028"
   sodipodi:docname="sondeos.svg"
   inkscape:version="1.0.1 (3bc2e81, 2020-09-07)">
  <metadata
     id="metadata146">
    <rdf:RDF>
      <cc:Work
         rdf:about="">
        <dc:format>image/svg+xml</dc:format>
        <dc:type
           rdf:resource="http://purl.org/dc/dcmitype/StillImage" />
        <dc:title></dc:title>
      </cc:Work>
    </rdf:RDF>
  </metadata>
  <defs
     id="defs144" />
  <sodipodi:namedview
     pagecolor="#ffffff"
     bordercolor="#666666"
     borderopacity="1"
     objecttolerance="10"
     gridtolerance="10"
     guidetolerance="10"
     inkscape:pageopacity="0"
     inkscape:pageshadow="2"
     inkscape:window-width="1832"
     inkscape:window-height="1009"
     id="namedview142"
     showgrid="false"
     inkscape:zoom="5.317443"
     inkscape:cx="78.294647"
     inkscape:cy="49.802968"
     inkscape:window-x="88"
     inkscape:window-y="34"
     inkscape:window-maximized="1"
     inkscape:current-layer="g156" />
  <g
     inkscape:groupmode="layer"
     inkscape:label="Image"
     id="g148"
     transform="translate(-55.874315,-62.446052)">
    <g
       id="g156"
       style="fill:#44aa00">
      <path
         style="fill:#44aa00;fill-opacity:1"
         d="m 76.101419,142.42975 c -4.485669,-1.78818 -5.545351,-7.15032 -2.242792,-11.34884 4.128344,-5.24834 11.92742,-2.16848 11.92742,4.71015 0,5.08533 -4.99393,8.5086 -9.684628,6.63869 z m 5.634441,-3.42323 c 0.657086,-0.79174 1.049686,-2.70424 0.872445,-4.25 -0.270402,-2.35822 -0.787467,-2.81047 -3.213272,-2.81047 -3.794294,0 -5.395512,2.47835 -3.826324,5.92234 1.295773,2.84391 4.292499,3.39695 6.167151,1.13813 z m 25.70559,2.38311 c -2.03548,-1.60111 -2.6554,-2.96944 -2.6554,-5.86117 0,-4.58742 2.40563,-7.08241 6.82874,-7.08241 2.85696,0 3.17126,-0.29733 3.17126,-3 0,-2.0409 0.49473,-3 1.54747,-3 1.28616,0 1.5078,1.33766 1.31256,7.92169 -0.15826,5.33723 0.18925,8.43276 1.06516,9.48817 1.47893,1.782 1.08545,2.01938 -5.01979,3.02839 -2.7501,0.4545 -4.21844,0.10335 -6.25,-1.49467 z m 7.1521,-5.69358 c 0.29521,-4.0802 0.19333,-4.25 -2.55,-4.25 -3.239,0 -5.2575,1.58507 -5.2575,4.12857 0,2.50008 2.90525,5.02695 5.37465,4.67465 1.72652,-0.24632 2.18305,-1.10075 2.43285,-4.55322 z m 11.28322,6.59323 c -1.3251,-0.49314 -2.99829,-1.67211 -3.7182,-2.61993 -4.96515,-6.53704 4.82079,-15.02999 10.62748,-9.2233 3.76728,3.76728 2.34812,6.68622 -3,6.17039 -0.825,-0.0796 -2.55221,0.0931 -3.83825,0.38367 -1.98835,0.44928 -2.14493,0.76128 -1.04639,2.08494 0.90091,1.08553 2.3094,1.39148 4.6542,1.01097 2.21234,-0.35901 3.23665,-0.16861 2.99488,0.5567 -0.5867,1.76011 -4.05581,2.61082 -6.67372,1.63656 z m 5.65928,-9.09323 c -0.22917,-0.6875 -1.91667,-1.25 -3.75,-1.25 -1.83333,0 -3.52083,0.5625 -3.75,1.25 -0.28889,0.86667 0.86111,1.25 3.75,1.25 2.88889,0 4.03889,-0.38333 3.75,-1.25 z m 9.56537,9.2337 c -4.62517,-1.84379 -5.72147,-8.31411 -2.00092,-11.80939 4.75621,-4.46822 11.68555,-1.40208 11.68555,5.1707 0,5.08533 -4.99393,8.5086 -9.68463,6.63869 z m 5.63444,-3.42323 c 0.65709,-0.79174 1.04969,-2.70424 0.87245,-4.25 -0.28482,-2.48392 -0.72893,-2.81047 -3.82226,-2.81047 -3.09333,0 -3.53744,0.32655 -3.82226,2.81047 -0.37073,3.2332 1.27945,5.68953 3.82226,5.68953 0.96531,0 2.29273,-0.64779 2.94981,-1.43953 z m 8.80019,3.27725 c -4.0805,-1.49033 -3.34512,-2.95652 1.12441,-2.24181 2.56492,0.41015 4.12914,0.20736 4.62811,-0.59999 0.91403,-1.47893 -1.18102,-2.95961 -4.21734,-2.98061 -2.51415,-0.0174 -4.57963,-3.08441 -3.67129,-5.4515 0.75256,-1.96115 4.55531,-2.98914 7.92701,-2.1429 3.14925,0.79041 2.13709,2.94185 -1.09347,2.32429 -2.5076,-0.47936 -5.30896,0.72661 -4.21922,1.81635 0.36867,0.36866 2.15563,0.97152 3.97104,1.33968 2.81483,0.57084 3.34689,1.14273 3.61416,3.88472 0.26221,2.69015 -0.11593,3.37857 -2.3151,4.21469 -1.44568,0.54965 -2.71171,0.96383 -2.81341,0.92041 -0.10169,-0.0434 -1.4224,-0.53092 -2.9349,-1.08333 z m -99.160158,-1.73844 c -2.231765,-2.46607 -0.20164,-3.96292 2.301909,-1.69724 2.264264,2.04913 5.522002,2.04135 7.58146,-0.0181 2.297903,-2.2979 1.465935,-3.66039 -3.314927,-5.42876 -6.069439,-2.24499 -7.799523,-4.25239 -6.369641,-7.39064 1.325573,-2.90932 5.388867,-4.2419 9.020072,-2.95818 4.53022,1.60153 3.724641,3.24163 -1.503162,3.06032 -4.159045,-0.14425 -4.805556,0.0964 -4.805556,1.78857 0,1.46942 0.974413,2.15769 3.921689,2.77004 5.24158,1.08903 6.578311,2.3818 6.578311,6.36197 0,3.97261 -2.069782,5.41274 -7.779271,5.41274 -2.572674,0 -4.499303,-0.65034 -5.630884,-1.90072 z m 33.410155,-3.04026 c 0,-2.71754 -0.473754,-5.23378 -1.052786,-5.59164 -2.177217,-1.3456 -0.200098,-2.73049 4.471272,-3.13195 6.694744,-0.57535 8.581517,1.25383 8.581517,8.31956 0,4.08445 -0.35376,5.34501 -1.5,5.34501 -1.125003,0 -1.500003,-1.2 -1.500003,-4.8 0,-5.52943 -1.106283,-7.0935 -4.551486,-6.43491 -2.236839,0.4276 -2.448514,0.93346 -2.448514,5.85149 0,2.96088 -0.45,5.38342 -1,5.38342 -0.55,0 -1,-2.22344 -1,-4.94098 z m 10.691923,-25.50995 c -0.798013,-0.79802 -1.746883,-3.02852 -2.108613,-4.95667 -1.10212,-5.87482 -4.386479,-7.592398 -14.518169,-7.592398 -9.392018,0 -11.065141,-0.75603 -11.065141,-5 0,-4.194251 1.699326,-5 10.545012,-5 8.854059,0 11.454988,1.340919 11.454988,5.905664 0,1.2365 1.358532,3.606716 3.01896,5.267144 2.999143,2.99913 3.081793,3.01669 12.587763,2.67307 9.14645,-0.33061 9.67978,-0.47498 12.0835,-3.27076 3.17555,-3.693524 2.65728,-8.962961 -1.21222,-12.325118 -2.26079,-1.964365 -3.6996,-2.25 -11.33376,-2.25 -9.55284,0 -11.144243,-0.737539 -11.144243,-5.164816 0,-3.84981 2.447793,-4.835184 12.011183,-4.835184 7.66646,0 8.31362,-0.170951 11.06574,-2.923077 1.67522,-1.675214 2.92308,-3.992674 2.92308,-5.428571 0,-4.446368 2.34083,-5.648352 11,-5.648352 8.56013,0 11,1.208618 11,5.448984 0,3.60306 -1.81924,4.325555 -11.83725,4.701043 -8.79002,0.329462 -9.47866,0.514411 -11.75,3.155737 -3.33696,3.880517 -3.15372,8.107115 0.51033,11.771159 2.75212,2.752126 3.39928,2.923077 11.06574,2.923077 9.68658,0 12.01118,0.96768 12.01118,5 0,4.03232 -2.3246,5 -12.01118,5 -7.66646,0 -8.31362,0.17095 -11.06574,2.923078 -1.62155,1.62154 -2.92308,4.00147 -2.92308,5.34501 0,4.28804 -2.83572,5.73191 -11.25731,5.73191 -5.30785,0 -8.03741,-0.43758 -9.05077,-1.45093 z m 0.0581,-13.629168 c -2.010243,-1.170856 -2.348683,-5.921223 -0.550003,-7.7199 1.887693,-1.887685 17.266523,-1.59062 19.228573,0.371429 2.00703,2.007027 2.00703,4.850115 0,6.857141 -1.8316,1.8316 -15.74893,2.197688 -18.67857,0.49133 z"
         id="path164" />
      <path
         style="fill:#44aa00;fill-opacity:1"
         d="m 57.536047,141.36595 c -0.9625,-0.5606 -1.75,-1.65099 -1.75,-2.42308 0,-1.15595 0.49545,-1.11945 2.806201,0.20674 4.922499,2.82513 11.31713,-0.44018 8.205192,-4.18983 -0.666797,-0.80344 -2.753149,-1.74986 -4.636337,-2.10315 -1.883189,-0.35329 -4.054024,-1.54185 -4.824079,-2.64126 -3.631832,-5.18517 4.522624,-10.36086 10.006321,-6.35108 2.532425,1.85175 1.262777,3.09102 -1.598145,1.5599 -2.675669,-1.43198 -6.959153,0.1264 -6.959153,2.53181 0,1.59192 0.54028,1.89522 5.180073,2.90803 8.417978,1.83753 7.351067,11.62814 -1.258814,11.55161 -1.881692,-0.0167 -4.208759,-0.48908 -5.171259,-1.04969 z m 16.954601,-0.1699 c -0.922712,-0.6875 -1.959005,-2.68267 -2.302872,-4.43371 -0.505662,-2.57493 -0.134494,-3.67443 1.941074,-5.75 6.501772,-6.50177 15.413711,1.62552 10.100493,9.2112 -1.76558,2.52072 -6.96407,3.03984 -9.738695,0.97251 z m 8.315614,-2.78777 c 2.263577,-4.22953 -1.97253,-9.12849 -6.020215,-6.96223 -2.255136,1.20691 -2.733085,5.86691 -0.8,7.8 1.874148,1.87415 5.614747,1.41467 6.820215,-0.83777 z m 6.979785,-0.90321 c 0,-2.71754 -0.45,-5.2191 -1,-5.55902 -2.145906,-1.32624 -0.782643,-2.27117 4.2374,-2.9371 4.6374,-0.61518 5.43932,-0.4454 7.000003,1.48195 2.22878,2.75243 2.50709,11.95515 0.36154,11.95515 -1.032993,0 -1.361373,-1.29986 -1.250003,-4.94796 0.17634,-5.77591 -1.01696,-7.42445 -4.704295,-6.49899 -2.450444,0.61502 -2.644645,1.05968 -2.644645,6.05536 0,2.96537 -0.45,5.39159 -1,5.39159 -0.55,0 -1,-2.22344 -1,-4.94098 z m 16.672893,3.13203 c -4.01809,-4.43994 -0.6311,-12.19105 5.32711,-12.19105 2.66667,0 3,-0.33333 3,-3 0,-2.04249 0.49451,-3 1.54937,-3 1.28583,0 1.50991,1.31821 1.31739,7.75 -0.12758,4.2625 0.10924,8.69196 0.52627,9.84324 0.70556,1.94778 0.38282,2.10551 -4.6445,2.26979 -4.13947,0.13526 -5.7939,-0.25568 -7.07564,-1.67198 z m 8.32711,-4.72243 c 0,-5.28772 -1.70787,-6.54528 -5.50772,-4.05552 -4.26399,2.79388 -2.54846,8.5869 2.5429,8.5869 2.85024,0 2.96482,-0.17513 2.96482,-4.53138 z m 8.11469,3.95005 c -2.76332,-3.51299 -2.67079,-5.95347 0.33986,-8.96412 2.99543,-2.99543 6.84698,-3.15302 9.60693,-0.39307 3.15168,3.15168 2.1482,5.38666 -2.5698,5.72351 -6.06572,0.43307 -6.98604,0.91441 -5.40069,2.82464 0.92561,1.1153 2.31408,1.42404 4.67857,1.04034 2.35422,-0.38204 3.24442,-0.18649 2.96908,0.6522 -0.21628,0.65881 -1.99435,1.33442 -3.95125,1.50136 -2.87156,0.24497 -3.96601,-0.21515 -5.6727,-2.38486 z m 9.88531,-5.89562 c 0,-0.26232 -1.09482,-1.1943 -2.43294,-2.07107 -1.89255,-1.24005 -2.89207,-1.34841 -4.5,-0.48787 -3.36554,1.80118 -2.37606,3.03589 2.43294,3.03589 2.475,0 4.5,-0.21463 4.5,-0.47695 z m 6,6.47695 c -2.70273,-2.70273 -2.51846,-6.57245 0.45455,-9.54545 6.33351,-6.33352 15.17495,1.9186 9.98875,9.32294 -2.03506,2.90545 -7.64092,3.02489 -10.4433,0.22251 z m 7.57294,-0.76531 c 1.55322,-1.06356 2.45708,-3.99289 1.77803,-5.76247 -1.78361,-4.648 -8.35097,-3.57613 -8.35097,1.36296 0,4.2546 3.43088,6.55101 6.57294,4.39951 z m 7.67706,2.10303 c -2.69388,-1.087 -1.0365,-2.20686 3,-2.02705 3.18336,0.14181 4.25,-0.18467 4.25,-1.30085 0,-0.85937 -1.22467,-1.70599 -2.89306,-2 -5.27293,-0.92921 -6.1587,-6.86764 -1.17066,-7.84838 2.69402,-0.52969 6.71881,0.77861 5.99552,1.9489 -0.35749,0.57844 -1.61713,0.80898 -2.7992,0.5123 -2.59785,-0.65202 -5.15328,0.72587 -4.2017,2.26556 0.37792,0.61149 1.73048,1.1118 3.00567,1.1118 3.1221,0 4.9331,2.39098 4.15605,5.48701 -0.53781,2.14277 -1.18037,2.50136 -4.36167,2.43404 -2.05202,-0.0434 -4.29345,-0.30592 -4.98095,-0.58333 z m -53.67857,-29.90915 c -0.864293,-0.86428 -1.571433,-2.6989 -1.571433,-4.07692 0,-1.4359 -1.247863,-3.75336 -2.923077,-5.42857 -2.752125,-2.752128 -3.399288,-2.923078 -11.065741,-2.923078 -9.686585,0 -12.011182,-0.96768 -12.011182,-5 0,-3.978831 2.323681,-5 11.377555,-5 6.626008,0 7.692098,0.261357 9.065741,2.222506 0.856187,1.222379 1.556704,3.207377 1.556704,4.411107 0,1.216276 1.366888,3.338757 3.07673,4.777495 2.811263,2.36552 3.853253,2.58889 12.076923,2.58889 8.61425,0 9.12554,-0.12535 11.92327,-2.92308 1.995,-1.994988 2.92308,-3.924421 2.92308,-6.076918 0,-2.152497 -0.92808,-4.081926 -2.92308,-6.076923 -2.77254,-2.772544 -3.36109,-2.923077 -11.42857,-2.923077 -8.93948,0 -11.648353,-1.143339 -11.648353,-4.916441 0,-3.76724 3.169343,-5.083559 12.239853,-5.083559 8.35589,0 8.65068,-0.08119 11.17126,-3.076725 1.42389,-1.692199 2.58889,-4.141682 2.58889,-5.443296 0,-3.714651 3.54356,-5.479979 11,-5.479979 7.12846,0 11,1.754607 11,4.985275 0,3.874853 -2.64773,5.014725 -11.64835,5.014725 -8.06748,0 -8.65603,0.150533 -11.42857,2.923077 -3.93001,3.930009 -3.93001,8.223837 0,12.153846 2.77254,2.772544 3.36109,2.923077 11.42857,2.923077 8.93948,0 11.64835,1.143339 11.64835,4.916441 0,3.767239 -3.16934,5.083559 -12.23985,5.083559 -8.35589,0 -8.65068,0.0812 -11.17126,3.076728 -1.42389,1.69219 -2.58889,4.14168 -2.58889,5.44329 0,3.82504 -3.51859,5.47998 -11.65108,5.47998 -5.21763,0 -7.63968,-0.43362 -8.77749,-1.57143 z m 0,-13.999998 c -0.864293,-0.864284 -1.571433,-2.407141 -1.571433,-3.42857 0,-3.766747 2.692553,-5 10.916443,-5 6.26093,0 8.09563,0.355853 9.42857,1.828741 2.15105,2.376883 2.09544,4.462686 -0.17375,6.516269 -2.53958,2.298288 -16.32318,2.360218 -18.59983,0.0836 z"
         id="path162" />
      <path
         style="fill:#44aa00;fill-opacity:1"
         d="m 57.228749,141.02781 c -2.495226,-1.82455 -1.28219,-3.10141 1.521105,-1.60113 2.903336,1.55382 7.09668,0.91091 8.435331,-1.29328 0.89439,-1.47268 0.658086,-2.17601 -1.259922,-3.75 -1.298431,-1.06554 -3.345931,-1.93735 -4.55,-1.93735 -2.809347,0 -4.589216,-1.80084 -4.589216,-4.6433 0,-2.21916 3.313664,-5.3567 5.657407,-5.3567 2.375218,0 6.453388,2.01171 5.898444,2.90963 -0.331429,0.53626 -1.799866,0.44708 -3.556579,-0.21601 -2.471886,-0.93303 -3.277268,-0.8442 -4.632421,0.51096 -2.329665,2.32966 -1.109299,4.43355 3.021164,5.20843 4.310418,0.80864 6.611985,2.93259 6.611985,6.10171 0,4.64815 -8.151871,7.28837 -12.557298,4.06704 z m 17.212286,-0.4105 c -1.947639,-2.15212 -2.200902,-8.4733 -0.399394,-9.96842 6.762068,-5.61202 15.933001,3.60856 9.744406,9.79716 -2.498659,2.49866 -7.161413,2.58411 -9.345012,0.17126 z m 8.77724,-3.44285 c 0.8024,-2.29497 0.5979,-3.14273 -1.189202,-4.92983 -1.850759,-1.85076 -2.520454,-1.99321 -4.700634,-0.99985 -2.812763,1.28158 -3.542782,5.80088 -1.299416,8.04425 2.131771,2.13177 6.114127,0.96044 7.189252,-2.11457 z m 6.567772,0.70585 c 0,-2.51116 -0.435393,-5.37928 -0.96754,-6.37361 -0.854849,-1.5973 -0.425741,-1.86893 3.684213,-2.33218 5.730647,-0.64593 7.179977,-0.13051 8.35993,2.97301 1.23231,3.24122 1.17982,10.29852 -0.0766,10.29852 -0.55,0 -1.000003,-1.93899 -1.000003,-4.30887 0,-5.68559 -1.83599,-8.20009 -5.344409,-7.31954 -2.470043,0.61994 -2.655591,1.04947 -2.655591,6.14746 0,3.01452 -0.45,5.48095 -1,5.48095 -0.55,0 -1,-2.05458 -1,-4.56574 z m 16.565573,2.35589 c -3.60068,-5.14069 -1.06211,-11.07916 4.79176,-11.2093 3.28038,-0.0729 3.63707,-0.35035 3.63973,-2.83085 0.002,-1.72504 0.53946,-2.75 1.44243,-2.75 1.14513,0 1.40074,1.58481 1.25,7.75 -0.10422,4.2625 0.1589,8.44041 0.5847,9.28424 0.64316,1.27455 -0.14975,1.57291 -4.68442,1.76266 -4.66128,0.19506 -5.68731,-0.0981 -7.0242,-2.00675 z m 8.68443,-1.04015 c -0.1375,-0.4125 -0.25,-2.55 -0.25,-4.75 0,-3.56863 -0.2619,-4 -2.42857,-4 -4.59489,0 -7.41198,5.75945 -4.32635,8.84508 1.29845,1.29845 7.44164,1.21507 7.00492,-0.0951 z m 7.80816,0.59681 c -5.24185,-6.66393 3.04187,-14.60549 9.46857,-9.07748 4.16836,3.58547 2.85992,5.73067 -3.49535,5.73067 -2.76726,0 -5.03138,0.3949 -5.03138,0.87756 0,1.94565 3.10354,3.35173 6.08284,2.75587 2.20899,-0.4418 2.96279,-0.26522 2.67022,0.6255 -0.22421,0.68259 -2.00877,1.37766 -3.96567,1.5446 -2.89125,0.24665 -3.9649,-0.21374 -5.72923,-2.45672 z m 9.75715,-5.82878 c 0.88314,-0.88315 -2.71671,-3.51803 -4.80644,-3.51803 -1.825,0 -4.00865,1.87902 -4.00931,3.45 -4.8e-4,1.13625 7.6882,1.19558 8.81575,0.068 z m 6.77565,6.58248 c -2.11382,-2.33575 -2.39245,-7.73817 -0.49486,-9.59509 4.29451,-4.20246 11.9039,-1.28297 11.9039,4.56716 0,5.9106 -7.5851,9.25333 -11.40904,5.02793 z m 8.57233,-2.55955 c 0.89722,-1.96918 0.78876,-2.9652 -0.54449,-5 -2.11715,-3.23116 -5.10932,-3.24816 -7.21076,-0.041 -1.51741,2.31587 -1.51741,2.68413 0,5 2.19053,3.34316 6.24092,3.36456 7.75525,0.041 z m 6.08671,3.8205 c -2.56834,-1.08512 -1.11108,-2.03126 3,-1.94777 3.14947,0.064 4.25,-0.30211 4.25,-1.41369 0,-0.84112 -1.09814,-1.6519 -2.5,-1.84582 -3.24115,-0.44834 -5,-1.94035 -5,-4.24144 0,-2.38883 3.52508,-4.24875 6.59314,-3.47872 3.51414,0.88199 2.94157,2.38514 -0.84314,2.21343 -4.21415,-0.19119 -4.5133,2.61029 -0.35694,3.34273 6.33499,1.11636 5.93592,7.33607 -0.49434,7.70461 -1.86929,0.10714 -3.96122,-0.0429 -4.64872,-0.33333 z M 99.986047,111.24605 c -0.66,-0.66 -1.2,-2.20047 -1.2,-3.42327 0,-1.22281 -1.165002,-3.60781 -2.588894,-5.3 -2.527925,-3.004268 -2.795098,-3.076728 -11.345012,-3.076728 -7.212794,0 -9.047822,-0.32233 -10.411106,-1.82874 -2.078467,-2.29668 -2.107325,-4.576065 -0.08356,-6.599831 1.14652,-1.146521 3.580086,-1.571429 9,-1.571429 8.30536,0 11.428571,1.788748 11.428571,6.545455 0,1.4 1.104545,3.649995 2.454545,4.999993 2.265945,2.26595 3.193909,2.45455 12.076929,2.45455 9.30192,0 9.71972,-0.0974 12.54545,-2.92308 3.8722,-3.872196 3.98446,-8.742815 0.28672,-12.440554 -2.44869,-2.448682 -3.26228,-2.636364 -11.42858,-2.636364 -9.30216,0 -11.935064,-1.106258 -11.935064,-5.014725 0,-3.493931 3.820224,-4.985275 12.770264,-4.985275 7.71826,0 8.50403,-0.192917 10.77749,-2.646023 1.34874,-1.455312 2.45225,-3.509896 2.45225,-4.565741 0,-1.055845 0.46583,-2.790135 1.03518,-3.853977 0.90481,-1.690653 2.15981,-1.934259 9.96482,-1.934259 7.80501,0 9.06001,0.243606 9.96482,1.934259 1.40639,2.627879 1.30648,3.651583 -0.53625,5.494312 -1.16648,1.166481 -3.63152,1.571429 -9.56574,1.571429 -11.12163,0 -14.77055,2.242258 -14.83103,9.113636 -0.0229,2.598632 0.70871,4.354143 2.60456,6.25 2.4282,2.428195 3.29676,2.636364 11,2.636364 7.03031,0 8.68248,0.318841 10.36364,2 1.1,1.1 2,2.45 2,3 0,0.55 -0.9,1.9 -2,3 -1.68794,1.68794 -3.33333,2 -10.54545,2 -7.73962,0 -8.77692,0.23146 -11,2.454548 -1.35,1.35 -2.45455,3.40458 -2.45455,4.56574 0,5.17909 -1.45071,5.97971 -10.83518,5.97971 -5.48375,0 -9.21403,-0.44921 -9.964823,-1.2 z m 0.454993,-13.628738 c -4.334547,-4.789615 -0.538023,-8.17126 9.17375,-8.17126 5.83793,0 7.54311,0.371855 9.17126,2 1.1,1.1 2,2.45 2,3 0,0.55 -0.9,1.9 -2,3 -2.8096,2.809598 -15.8472,2.931308 -18.34501,0.17126 z"
         id="path160" />
      <path
         style="fill:#44aa00;fill-opacity:1"
         d="m 59.786047,141.60303 c 0,-0.53336 0.902397,-0.73376 2.005326,-0.44534 1.10293,0.28843 2.751109,-0.0912 3.662622,-0.84362 1.419069,-1.17138 1.586913,-1.1524 1.167662,0.13198 -0.538445,1.64954 -6.83561,2.71538 -6.83561,1.15698 z m 14.654988,-0.98572 c -1.946988,-2.1514 -2.10403,-3.17126 -0.488321,-3.17126 0.641666,0 0.870571,0.2961 0.508676,0.65799 -0.361895,0.3619 -0.156795,1.2619 0.455778,2 1.508383,1.81749 6.514417,1.70811 7.230505,-0.15799 0.316583,-0.825 1.109472,-1.5 1.761977,-1.5 0.707295,0 0.455474,0.80763 -0.623603,2 -2.261198,2.4986 -6.661693,2.5838 -8.845012,0.17126 z m 15.345012,-3.17126 c 0,-2.75 0.45,-5 1,-5 0.55,0 1,2.25 1,5 0,2.75 -0.45,5 -1,5 -0.55,0 -1,-2.25 -1,-5 z m 22.500003,3.95361 c 3.98915,-0.96841 3.99972,-0.98391 3.89755,-5.71233 -0.0902,-4.1744 -0.0521,-4.26538 0.31875,-0.7609 0.23167,2.18921 0.83313,4.47671 1.33658,5.08333 0.58014,0.69903 0.4634,1.16448 -0.31876,1.27095 -0.67876,0.0924 -3.03412,0.37545 -5.23412,0.62899 l -4,0.461 z m 12,-0.61995 -2,-1.60273 2,0.8233 c 1.1,0.45281 3.56089,0.76348 5.46865,0.69038 2.48867,-0.0953 3.05371,0.12951 2,0.79593 -2.18881,1.38429 -5.21676,1.09771 -7.46865,-0.70688 z m 15.06733,-0.25926 c -0.95845,-1.05907 -1.53039,-2.74657 -1.27098,-3.75 0.45542,-1.76161 0.47564,-1.76172 0.58765,-0.003 0.28221,4.43125 7.36123,6.632 8.616,2.67857 0.34913,-1.1 0.95869,-2 1.35458,-2 0.3959,0 0.78761,-0.9 0.87047,-2 0.0829,-1.1 -0.27138,-2 -0.7872,-2 -0.51582,0 -0.82535,-0.55632 -0.68785,-1.23626 0.15008,-0.74215 -1.34872,-1.48479 -3.75,-1.85809 l -4,-0.62184 3.6933,-0.1419 c 2.78312,-0.10694 4.07693,0.4058 5.25,2.0806 2.08833,2.98151 1.96083,4.99401 -0.51588,8.14263 -2.49817,3.1759 -6.8307,3.5042 -9.36009,0.70926 z m 14.99154,0.3938 c -1.06762,-0.80751 -1.43168,-1.4682 -0.80902,-1.4682 0.62267,0 1.44088,0.4996 1.81826,1.11021 0.40305,0.65214 2.08704,0.88288 4.08143,0.55924 2.00373,-0.32516 3.15698,-0.16541 2.81385,0.38978 -0.88189,1.42693 -5.71425,1.0656 -7.90452,-0.59103 z m -97.3483,-1.06906 c -0.709184,-0.76953 -0.848242,-1.39914 -0.309017,-1.39914 1.038441,0 2.541728,1.90221 1.94858,2.46567 -0.192575,0.18294 -0.930378,-0.297 -1.639563,-1.06653 z m 43.06179,-4.39914 c 0,-2.475 0.19502,-3.4875 0.43337,-2.25 0.23836,1.2375 0.23836,3.2625 0,4.5 -0.23835,1.2375 -0.43337,0.225 -0.43337,-2.25 z m 5.97764,3.33772 c -1.72724,-0.69696 -1.56581,-4.44182 0.3067,-7.11521 1.18063,-1.68558 2.44896,-2.1819 5.25,-2.05441 l 3.6933,0.16811 -3.61328,0.38411 c -4.26949,0.45387 -6.63063,4.02116 -4.85614,7.33683 0.57189,1.06857 0.91145,1.90732 0.7546,1.8639 -0.15685,-0.0434 -0.84768,-0.30592 -1.53518,-0.58333 z m 55.75,-0.33772 c 0,-0.55 0.45,-1 1,-1 0.55,0 1,0.45 1,1 0,0.55 -0.45,1 -1,1 -0.55,0 -1,-0.45 -1,-1 z m -93.863821,-2.23818 c -0.118793,-2.38854 -0.64695,-2.81986 -4.136182,-3.37781 -2.2,-0.35179 -4,-0.98472 -4,-1.40651 0,-0.98586 6.938262,0.56076 8.206929,1.82943 0.52932,0.52932 0.760584,2.0268 0.513918,3.32773 -0.413294,2.17975 -0.459168,2.1505 -0.584665,-0.37284 z m 53.863821,1.17916 c 0,-0.58246 0.45,-0.7809 1,-0.44098 0.55,0.33992 1,0.81648 1,1.05902 0,0.24254 -0.45,0.44098 -1,0.44098 -0.55,0 -1,-0.47656 -1,-1.05902 z m -38.125003,-1.94098 c -0.06875,-1.1 -0.18125,-2.5625 -0.25,-3.25 -0.06875,-0.6875 -1.925,-1.52364 -4.125,-1.85809 l -4,-0.6081 3.627555,-0.1419 c 3.455254,-0.13517 6.597525,1.79968 5.197102,3.2001 -0.361895,0.36189 -0.13299,0.65799 0.508676,0.65799 0.641667,0 1.166667,0.9 1.166667,2 0,1.1 -0.45,2 -1,2 -0.55,0 -1.05625,-0.9 -1.125,-2 z m 42.375003,0.28375 c 1.5125,-0.22913 3.9875,-0.22913 5.5,0 1.5125,0.22912 0.275,0.41659 -2.75,0.41659 -3.025,0 -4.2625,-0.18747 -2.75,-0.41659 z m 31.25,-0.28375 -3,-0.76337 3,-0.103 c 1.65,-0.0567 3.675,0.33321 4.5,0.86637 1.33333,0.86167 1.33333,0.95793 0,0.86637 -0.825,-0.0566 -2.85,-0.44652 -4.5,-0.86637 z m -84.421056,-1.58333 c 0.04798,-1.16495 0.284941,-1.4019 0.604167,-0.60417 0.288871,0.72187 0.253344,1.58437 -0.07895,1.91667 -0.332292,0.33229 -0.568641,-0.25834 -0.52522,-1.3125 z m 59.159296,-1.4068 c -1.59203,-2.54924 -6.74175,-2.71947 -8.11355,-0.2682 -0.53608,0.95792 -1.25486,1.46149 -1.59731,1.11905 -1.26387,-1.26388 2.71919,-3.86072 5.9216,-3.86072 3.31077,0 6.04549,2.01658 5.39227,3.97625 -0.19131,0.57392 -0.91266,0.13905 -1.60301,-0.96638 z m 5.76176,1.09712 c 0,-0.49116 0.73865,-1.17646 1.64144,-1.52289 1.37248,-0.52667 1.43434,-0.38034 0.37756,0.89301 -1.44013,1.73524 -2.019,1.91584 -2.019,0.62988 z m 16,-1.10699 c 0,-0.55 0.45,-1 1,-1 0.55,0 1,0.45 1,1 0,0.55 -0.45,1 -1,1 -0.55,0 -1,-0.45 -1,-1 z m 4.5,-2 -4,-0.71619 4.25,-0.1419 c 2.3375,-0.078 4.25,0.30809 4.25,0.85809 0,0.55 -0.1125,0.93614 -0.25,0.85809 -0.1375,-0.078 -2.05,-0.46419 -4.25,-0.85809 z m -66.732094,-0.72473 c 1.79735,-0.22256 4.49735,-0.21797 6,0.0102 1.502651,0.22818 0.03209,0.41027 -3.267909,0.40466 -3.3,-0.006 -4.529441,-0.1923 -2.732091,-0.41486 z m -34.767909,-2.21857 c 0,-2.18858 3.52935,-5.0567 6.222506,-5.0567 2.456433,0 2.250108,1.97046 -0.222506,2.125 -1.1,0.0687 -2.5625,0.18369 -3.25,0.25543 -0.6875,0.0717 -1.196119,1.14048 -1.130264,2.375 0.06585,1.23451 -0.271645,2.24457 -0.75,2.24457 -0.478355,0 -0.869736,-0.87448 -0.869736,-1.9433 z m 59.731213,-1.97654 c -0.43497,-1.66335 -0.30483,-2.05378 0.43724,-1.31171 0.5811,0.5811 0.85979,1.64682 0.61931,2.36826 -0.24965,0.74895 -0.70294,0.29565 -1.05655,-1.05655 z m -50.731213,-1.04878 c 0,-0.53273 0.675,-0.70959 1.5,-0.39301 0.825,0.31659 1.5,0.75246 1.5,0.96862 0,0.21615 -0.675,0.39301 -1.5,0.39301 -0.825,0 -1.5,-0.43588 -1.5,-0.96862 z M 100.29313,111.4575 c -0.350343,-0.56686 0.0511,-0.7345 0.94098,-0.39301 1.73242,0.66479 2.04939,1.38156 0.61096,1.38156 -0.51754,0 -1.21592,-0.44485 -1.55194,-0.98855 z m 19.57187,-5.59478 c 0.048,-1.16495 0.28494,-1.4019 0.60416,-0.60417 0.28887,0.72187 0.25335,1.58437 -0.0789,1.91667 -0.3323,0.33229 -0.56864,-0.25834 -0.52522,-1.3125 z m -24.365554,-4.54621 c -2.059042,-2.000358 -2.45068,-2.900908 -1.5,-3.449148 0.70763,-0.40808 0.955143,-0.37586 0.550027,0.0716 -0.405115,0.44746 0.63537,1.82575 2.31219,3.062868 1.676824,1.23712 2.683274,2.42313 2.236574,2.63558 -0.4467,0.21244 -2.066161,-0.83196 -3.598791,-2.32091 z m 24.369934,1.86888 c 0.22917,-0.14336 1.54167,-1.15586 2.91667,-2.25 l 2.5,-1.989338 -1.90499,2.249998 c -1.04774,1.2375 -2.36024,2.25 -2.91666,2.25 -0.55643,0 -0.82418,-0.1173 -0.59502,-0.26066 z M 73.986047,97.246052 c -1.693154,-1.693154 -1.489322,-4.316001 0.460655,-5.927555 1.52005,-1.256242 1.542018,-1.181941 0.259454,0.877555 -1.135605,1.823513 -1.164451,2.6291 -0.152182,4.25 1.414265,2.2646 1.199373,2.5673 -0.567927,0.8 z m 70.010573,-0.199141 c 0.70919,-0.769527 1.44699,-1.249466 1.63957,-1.066531 0.59314,0.563459 -0.91014,2.465672 -1.94858,2.465672 -0.53923,0 -0.40017,-0.62961 0.30901,-1.399141 z m -18.79999,-3.592542 c 0.066,-2.576112 0.55344,-3.532728 1.85902,-3.648212 1.1302,-0.09997 1.241,0.0099 0.30665,0.304099 -0.80463,0.253345 -1.64119,1.89504 -1.85903,3.648211 -0.38121,3.067979 -0.39271,3.056568 -0.30664,-0.304098 z m -7.20001,-1.609176 c -0.70918,-0.769528 -0.84824,-1.399141 -0.30901,-1.399141 1.03844,0 2.54172,1.902213 1.94858,2.465672 -0.19258,0.182935 -0.93038,-0.297004 -1.63957,-1.066531 z m -17.47724,-0.523229 c 0.67834,-0.683418 1.48524,-0.990671 1.79313,-0.682784 0.30789,0.307887 -0.24711,0.867048 -1.23333,1.242579 -1.425203,0.542685 -1.540063,0.427821 -0.5598,-0.559795 z m 21.13911,-4.625912 c -1.24387,-1.586056 -1.2085,-1.621426 0.37756,-0.377555 0.9625,0.754844 1.75,1.542344 1.75,1.75 0,0.823034 -0.82119,0.293303 -2.12756,-1.372445 z m -4.18392,-1.89769 c 1.20368,-0.261414 2.41535,-1.235126 2.69258,-2.163804 0.36277,-1.215193 0.44722,-1.127877 0.30127,0.311494 -0.13766,1.357584 -1.00254,2.052615 -2.69259,2.163805 -2.08672,0.137287 -2.13549,0.08686 -0.30126,-0.311495 z m -16.95519,-7.476398 c 0.67834,-0.683418 1.48524,-0.990671 1.79313,-0.682784 0.30789,0.307887 -0.24711,0.867048 -1.23333,1.242579 -1.425203,0.542685 -1.540063,0.427821 -0.5598,-0.559795 z m 21.98889,-3.926308 c 1.22222,-1.286171 2.41565,-2.138493 2.65206,-1.894048 0.23641,0.244444 -0.76359,1.296766 -2.22222,2.338492 l -2.65206,1.894048 z m 2.43567,-4.949604 c 0,-1.375 0.22698,-1.9375 0.50439,-1.25 0.27741,0.6875 0.27741,1.8125 0,2.5 -0.27741,0.6875 -0.50439,0.125 -0.50439,-1.25 z m 18.84211,-5 c -0.90129,-0.58246 -1.02463,-0.975486 -0.30902,-0.984687 0.65504,-0.0084 1.4691,0.434687 1.80902,0.984687 0.7673,1.241525 0.42112,1.241525 -1.5,0 z"
         id="path158" />
      <path
         style="fill:#222b00;stroke-width:0.18806"
         d="m 4.2330409,79.787598 c -2.6341426,-0.467945 -4.80831884,-2.334344 -4.51562126,-3.876387 0.0482257,-0.254072 0.26510298,-0.358672 0.82975056,-0.400187 0.6585141,-0.04842 0.9297815,0.0655 1.9573623,0.821958 1.7031502,1.253788 2.283046,1.459576 4.1391353,1.468861 1.2941077,0.0065 1.7682179,-0.07424 2.4896808,-0.423833 C 10.21686,76.852979 11.482593,75.464243 11.639392,74.62843 11.911422,73.178385 10.832553,72.331607 6.6161194,70.685785 2.5338014,69.092313 2.528667,69.089501 1.5457957,67.908461 0.39358593,66.523941 0.15447608,65.706585 0.53087259,64.43912 1.1091407,62.49188 2.581225,61.145642 4.9239192,60.421629 c 1.9689289,-0.608501 3.7280761,-0.418013 5.7832518,0.626234 1.487323,0.755718 2.109159,1.35068 2.001315,1.914824 -0.0499,0.26106 -0.102027,0.481879 -0.115827,0.490709 -0.0138,0.0088 -1.802261,0.05526 -3.9743579,0.103165 -2.1720967,0.04791 -4.1816247,0.177741 -4.4656182,0.288513 -0.733854,0.286241 -1.0506217,1.383783 -0.6802433,2.35692 0.3818642,1.003314 1.1845413,1.457591 3.5930307,2.033485 3.9561507,0.945955 5.4433427,1.723991 6.1887277,3.23768 0.382464,0.776689 0.441732,1.174601 0.441732,2.96571 0,1.857755 -0.04793,2.154093 -0.470151,2.906584 -0.58491,1.042449 -1.651973,1.797137 -3.044162,2.153006 -1.3913188,0.355644 -4.6755793,0.515281 -5.9485761,0.289139 z"
         id="path166"
         transform="translate(55.874315,62.446052)" />
      <path
         style="fill:#222b00;stroke-width:0.18806"
         d="m 20.585848,79.997528 c -1.583951,-0.587294 -2.858862,-1.663053 -3.607466,-3.043951 -0.63811,-1.177076 -0.649608,-1.238231 -0.649608,-3.45501 v -2.256724 l 0.842343,-1.386153 c 0.925897,-1.523648 1.816893,-2.3521 3.389069,-3.151171 0.87104,-0.442713 1.271725,-0.526738 2.538759,-0.532385 2.02004,-0.009 3.444305,0.626317 4.879646,2.176657 3.298678,3.562965 2.122262,9.378235 -2.307893,11.408402 -1.460531,0.669304 -3.648938,0.772739 -5.08485,0.240335 z m 3.976605,-2.338472 c 1.445904,-0.618661 2.215847,-2.151547 2.232345,-4.444397 0.01413,-1.964376 -0.277584,-2.932271 -1.025551,-3.402685 -0.851688,-0.535646 -3.79853,-0.436176 -4.958203,0.167362 -1.294178,0.673539 -1.662336,1.372357 -1.655883,3.143111 0.0046,1.253714 0.08785,1.661212 0.499629,2.444784 0.490793,0.933916 1.21889,1.734134 1.939673,2.131803 0.528637,0.29166 2.246998,0.268514 2.96799,-0.03998 z"
         id="path168"
         transform="translate(55.874315,62.446052)" />
      <path
         style="fill:#222b00;stroke-width:0.18806"
         d="m 34.503941,79.47657 c -0.318123,-0.785881 -0.582791,-2.945409 -0.594363,-4.849641 -0.0057,-0.930898 -0.12941,-2.361009 -0.275005,-3.178025 -0.228111,-1.280059 -0.359853,-1.582908 -0.952667,-2.190005 -0.854151,-0.874729 -0.767618,-1.314689 0.366565,-1.863738 1.274511,-0.61698 3.543811,-0.980951 6.317691,-1.013288 2.489787,-0.02903 2.558317,-0.0188 3.548745,0.529765 1.894648,1.049373 2.554973,2.509444 2.861023,6.326124 0.277287,3.457985 -0.104879,6.390349 -0.871158,6.684397 -0.493133,0.189233 -1.21625,-0.272944 -1.503798,-0.961145 -0.173027,-0.414111 -0.334678,-1.89302 -0.447041,-4.089891 -0.196,-3.832094 -0.458375,-4.934779 -1.353381,-5.687877 -0.743062,-0.625246 -1.65291,-0.765214 -3.189347,-0.490637 -1.490815,0.266424 -2.13107,0.773684 -2.3348,1.849812 -0.07283,0.384682 -0.198492,2.307338 -0.279255,4.272568 -0.142628,3.470605 -0.396651,4.961907 -0.871669,5.117341 -0.115128,0.03767 -0.304821,-0.16742 -0.42154,-0.45576 z"
         id="path170"
         transform="translate(55.874315,62.446052)" />
      <path
         style="fill:#222b00;stroke-width:0.18806"
         d="m 54.126442,80.212552 c -2.179655,-0.753706 -3.761594,-2.064629 -4.584455,-3.79905 -0.441776,-0.931171 -0.490242,-1.250031 -0.485939,-3.197025 0.0056,-2.539047 0.381153,-3.74946 1.589056,-5.121711 1.125668,-1.278826 2.492988,-1.808764 5.18535,-2.009708 2.858241,-0.213324 2.911687,-0.261057 3.108282,-2.775986 0.07938,-1.015501 0.23153,-2.073944 0.338104,-2.352096 0.398384,-1.039756 1.723252,-1.160193 2.136769,-0.194243 0.145656,0.340243 0.260462,2.876898 0.342346,7.564176 0.132224,7.568895 0.178459,7.943778 1.154719,9.362723 0.307731,0.447271 0.511119,0.939328 0.451973,1.093458 -0.175276,0.456765 -1.255651,0.798811 -4.097706,1.297334 -3.146341,0.551897 -3.8707,0.570523 -5.138499,0.132128 z m 3.448565,-2.803435 c 0.671723,-0.498399 0.957036,-1.431686 1.195485,-3.91055 0.158568,-1.648441 0.146663,-2.277832 -0.05861,-3.098356 -0.34225,-1.368062 -0.701524,-1.554312 -2.796414,-1.449683 -2.498271,0.124777 -3.569378,0.719444 -4.464713,2.47876 -0.612099,1.202764 -0.647924,2.525816 -0.09712,3.58659 0.40563,0.781181 1.545693,1.930802 2.335481,2.355061 1.178819,0.633238 3.058987,0.65171 3.885884,0.03818 z"
         id="path172"
         transform="translate(55.874315,62.446052)" />
      <path
         style="fill:#000000;stroke-width:0.18806"
         d="m 70.54204,79.896532 c -2.004178,-0.551674 -3.980671,-2.164032 -4.871866,-3.974307 -1.215125,-2.468269 -0.625203,-5.278526 1.568147,-7.470305 0.547305,-0.546913 1.488014,-1.227377 2.090464,-1.512142 2.905076,-1.373164 5.597317,-0.869917 7.798758,1.457783 1.160249,1.226792 1.721366,2.343077 1.727155,3.435997 0.0035,0.65489 -0.09891,0.870246 -0.639255,1.344674 -0.82898,0.727854 -2.011182,0.976787 -4.678575,0.985153 -1.158532,0.0036 -2.614185,0.11594 -3.234784,0.24957 -2.157443,0.464549 -2.43685,0.923664 -1.316686,2.163551 0.825953,0.914231 1.953553,1.263522 3.76147,1.16517 0.724032,-0.03939 1.866499,-0.0793 2.538814,-0.0887 1.17639,-0.01644 1.222392,2.44e-4 1.222392,0.443499 0,0.320125 -0.241273,0.644608 -0.791171,1.064029 -1.258124,0.959604 -3.304991,1.250731 -5.174863,0.736026 z m 4.1614,-8.058627 c 1.058872,-0.281196 1.324214,-0.672829 0.897303,-1.324378 -0.970617,-1.481348 -6.952751,-1.338483 -7.535433,0.179961 -0.2155,0.561584 0.491505,1.018953 1.954684,1.264505 0.983994,0.165135 3.889996,0.09062 4.683446,-0.120088 z"
         id="path174"
         transform="translate(55.874315,62.446052)" />
      <path
         style="fill:#000000;stroke-width:0.18806"
         d="m 3.5406726,79.548447 c -2.1327608,-0.714682 -3.66717614,-2.065972 -3.66717614,-3.229517 0,-0.638626 0.0211487,-0.657669 0.73037588,-0.657669 0.56066446,0 1.02719176,0.203234 2.00776326,0.874647 1.4740335,1.009294 2.5471792,1.382077 3.9786439,1.382077 1.6407401,0 2.5993907,-0.334616 3.6405905,-1.270745 1.069632,-0.961691 1.490426,-1.658116 1.490426,-2.466694 0,-1.197677 -1.310313,-2.100273 -5.3597187,-3.691988 C 5.1203792,70.000675 3.7105659,69.401815 3.2286587,69.157757 1.9304105,68.50027 0.4376774,66.516873 0.4376774,65.449376 c 0,-1.21613 1.0771854,-3.017627 2.309091,-3.861751 2.2130092,-1.516394 5.0619121,-1.766618 7.4700456,-0.656107 1.571138,0.724531 2.482737,1.486965 2.407576,2.013626 -0.055,0.385409 -0.176168,0.402079 -3.7817757,0.520301 -2.0487243,0.06717 -4.0169457,0.176913 -4.3738253,0.243864 -0.8930385,0.167535 -1.2855707,0.809804 -1.1624599,1.90204 0.1643828,1.458399 0.9205908,1.976869 4.0895799,2.80389 3.797178,0.990962 4.96771,1.63794 5.729613,3.166881 0.414191,0.831174 0.476377,1.201161 0.476377,2.834298 0,1.532932 -0.07375,2.030687 -0.401077,2.706849 -0.476467,0.984249 -1.552961,1.815498 -2.873738,2.219049 -1.3316078,0.406859 -5.7838322,0.542091 -6.7864114,0.206131 z"
         id="path176"
         transform="translate(55.874315,62.446052)" />
      <path
         style="fill:#000000;stroke-width:0.18806"
         d="M 2.9622596,79.223695 C 1.0940864,78.504956 -0.55272696,76.571068 0.12569085,75.89265 0.48503264,75.533308 1.179324,75.760572 2.9019837,76.801418 c 1.5660141,0.9462 2.1712242,1.117578 3.9285028,1.112436 1.7958833,-0.0053 2.6103885,-0.369227 3.9034935,-1.744333 0.879807,-0.935599 0.987316,-1.139286 0.987316,-1.870564 0,-1.410435 -1.136025,-2.185455 -6.3000203,-4.298008 C 3.3957221,69.17231 2.8212778,68.845783 2.0713459,68.096772 0.35604627,66.38358 0.16381338,65.153352 1.3193592,63.2843 3.2027929,60.237918 8.0743464,59.436564 11.31668,61.639775 c 0.975595,0.66293 1.33126,1.135031 1.058601,1.40516 -0.101109,0.10017 -1.958194,0.268928 -4.1268553,0.375017 -4.5841142,0.224251 -4.85299,0.316915 -4.954908,1.707636 -0.132335,1.805775 0.4762789,2.278493 4.478512,3.478516 3.3074133,0.99169 4.3186813,1.503221 4.9964133,2.527343 1.052301,1.590134 1.014537,5.237061 -0.06808,6.574672 -1.132048,1.398681 -2.9094453,1.906467 -6.6208752,1.89152 -1.6784127,-0.0068 -2.3764375,-0.09094 -3.1172282,-0.375944 z"
         id="path178"
         transform="translate(55.874315,62.446052)" />
      <path
         style="fill:#000000;stroke-width:0.18806"
         d="m 2.9495142,79.218939 c -1.8186133,-0.69939 -3.46496517,-2.580336 -2.87778289,-3.287847 0.33228034,-0.400374 0.90719913,-0.237347 2.62266989,0.743694 1.8408699,1.052754 2.4396092,1.243199 3.9084958,1.243199 1.683765,0 2.5564773,-0.307378 3.640885,-1.282354 1.573055,-1.414311 1.879583,-2.536345 0.98375,-3.600981 C 10.710305,72.419961 8.4272179,71.24618 5.0039176,69.834965 2.7519177,68.906605 1.6095218,67.995431 0.92379537,66.580663 0.36229282,65.42219 0.4501253,64.690253 1.3193592,63.2843 3.2709339,60.127702 8.4087157,59.393521 11.586327,61.817166 c 0.453982,0.346263 0.79318,0.761732 0.79318,0.971531 0,0.337344 -0.194815,0.377776 -2.4447837,0.507389 -4.9932013,0.287642 -5.9565745,0.422657 -6.3330332,0.887564 -0.4802162,0.593042 -0.4542746,1.882547 0.050789,2.524631 0.5548583,0.705388 1.391577,1.082276 4.4016408,1.982655 3.0323831,0.907056 4.0470821,1.434241 4.7211901,2.452888 1.080342,1.632507 1.037842,5.189406 -0.07849,6.568667 -1.130672,1.396984 -2.8759657,1.903834 -6.5019595,1.888237 -1.8011273,-0.0077 -2.4805827,-0.08768 -3.2453495,-0.381789 z"
         id="path180"
         transform="translate(55.874315,62.446052)" />
      <path
         style="fill:#000000;stroke-width:0.18806"
         d="m 20.08998,79.649565 c -1.370998,-0.66441 -2.540182,-1.80057 -3.185471,-3.095498 -0.43366,-0.870242 -0.481705,-1.184235 -0.481705,-3.148146 V 71.22443 l 0.95941,-1.461423 c 1.02069,-1.554769 1.901124,-2.323947 3.527144,-3.081438 0.87617,-0.408168 1.198123,-0.458282 2.470863,-0.384604 2.561513,0.148284 4.658607,1.617294 5.792447,4.057598 0.425071,0.914856 0.499274,1.327937 0.497202,2.767884 -0.0032,2.259188 -0.482383,3.487835 -1.935406,4.962987 -1.512624,1.53566 -2.511154,1.967861 -4.729549,2.047123 -1.65653,0.05919 -1.868705,0.02403 -2.914935,-0.482992 z m 5.148778,-2.278737 c 0.380226,-0.271182 0.825859,-0.869296 1.109835,-1.48958 0.400406,-0.874602 0.475275,-1.317766 0.479448,-2.837928 0.0054,-1.977925 -0.257783,-2.773867 -1.099733,-3.325534 -0.374337,-0.245275 -0.844914,-0.291173 -2.396437,-0.23374 -1.685375,0.06239 -2.040922,0.1361 -2.798807,0.58025 -1.029397,0.603267 -1.477962,1.519297 -1.476367,3.014941 0.0019,1.821943 0.740797,3.383409 2.0713,4.377409 0.592259,0.442468 0.788707,0.483199 2.064978,0.428148 1.126767,-0.0486 1.538237,-0.151977 2.045783,-0.513966 z"
         id="path182"
         transform="translate(55.874315,62.446052)" />
      <path
         style="fill:#000000;stroke-width:0.18806"
         d="m 20.078488,79.530267 c -1.18073,-0.598135 -2.588219,-1.983089 -3.109318,-3.059536 -0.308478,-0.637229 -0.41304,-1.292805 -0.481897,-3.021349 l -0.08794,-2.207539 1.093396,-1.504482 c 1.231722,-1.694814 2.878109,-2.951945 4.248855,-3.244296 1.145457,-0.244303 3.130624,0.03292 4.231893,0.590979 1.255072,0.635994 2.73542,2.297897 3.24347,3.641262 0.342476,0.905561 0.394973,1.355425 0.323907,2.775652 -0.05674,1.133865 -0.209354,1.974281 -0.461041,2.538814 -0.522029,1.17091 -1.897614,2.633743 -3.094456,3.290726 -0.898478,0.493202 -1.216531,0.559047 -2.980445,0.617025 -1.81638,0.0597 -2.050913,0.02626 -2.926427,-0.417256 z m 4.820077,-1.90112 c 0.821377,-0.42475 1.627257,-1.656826 1.88044,-2.874924 0.275495,-1.325449 0.102976,-3.634334 -0.325792,-4.36018 -0.511191,-0.865377 -0.945991,-0.988786 -3.210627,-0.911273 -1.847003,0.06322 -2.134689,0.121443 -2.810787,0.568863 -0.987896,0.653759 -1.37615,1.505432 -1.37615,3.018719 0,1.707741 0.449758,2.870518 1.52697,3.947729 l 0.899903,0.899904 h 1.428747 c 0.91701,0 1.628803,-0.103454 1.987296,-0.288838 z"
         id="path184"
         transform="translate(55.874315,62.446052)" />
      <path
         style="fill:#000000;stroke-width:0.18806"
         d="m 34.480187,79.093362 c -0.111181,-0.387875 -0.324355,-2.313142 -0.47372,-4.278373 -0.307471,-4.045471 -0.42534,-4.584063 -1.219469,-5.572251 -0.31192,-0.388142 -0.567127,-0.835897 -0.567127,-0.99501 0,-0.381393 1.204403,-0.981883 2.673939,-1.333168 1.65477,-0.395566 6.266656,-0.58797 7.145016,-0.298086 1.101819,0.363634 2.172712,1.259397 2.661006,2.225838 0.738361,1.461377 0.952982,2.882302 0.958943,6.348798 0.0045,2.63042 -0.05192,3.324298 -0.318446,3.915149 -0.275188,0.610042 -0.401028,0.709106 -0.83612,0.658211 -0.934956,-0.109367 -1.14543,-0.810963 -1.462779,-4.876027 -0.361694,-4.633114 -0.623417,-5.478365 -1.881114,-6.075182 -1.393856,-0.661428 -4.174317,-0.158702 -4.798443,0.86759 -0.366939,0.603383 -0.40082,0.884457 -0.746694,6.194401 -0.18837,2.891892 -0.385274,3.923336 -0.74897,3.923336 -0.101131,0 -0.274841,-0.317352 -0.386022,-0.705226 z"
         id="path186"
         transform="translate(55.874315,62.446052)" />
      <path
         style="fill:#000000;stroke-width:0.18806"
         d="m 34.592566,79.187392 c -0.06378,-0.232725 -0.288557,-2.195657 -0.499512,-4.362071 -0.384127,-3.94482 -0.544177,-4.615826 -1.421019,-5.957584 -0.457163,-0.69956 -0.252548,-1.011947 0.959983,-1.465613 1.461739,-0.546906 3.139809,-0.759653 6.026431,-0.764033 2.39773,-0.0036 2.475358,0.0092 3.32875,0.550403 0.480573,0.30477 1.095341,0.888946 1.366153,1.29817 0.876463,1.324426 1.064445,2.302161 1.162461,6.046235 0.102605,3.919304 -0.06793,4.934504 -0.847452,5.04505 -0.942284,0.133626 -1.197888,-0.639285 -1.544032,-4.668929 -0.38264,-4.454521 -0.709981,-5.50818 -1.90287,-6.125047 -0.770556,-0.39847 -3.162278,-0.296457 -4.063234,0.173306 -0.98631,0.514268 -1.153539,0.956166 -1.366283,3.610358 -0.323066,4.030572 -0.568875,6.462981 -0.683239,6.761009 -0.156559,0.407984 -0.382575,0.346129 -0.516137,-0.141254 z"
         id="path188"
         transform="translate(55.874315,62.446052)" />
      <path
         style="fill:#000000;stroke-width:0.18806"
         d="m 53.811689,80.000544 c -1.338717,-0.523455 -2.107652,-1.058868 -3.134922,-2.182866 -1.324968,-1.449726 -1.606141,-2.40537 -1.488963,-5.060663 0.103255,-2.339804 0.417075,-3.305327 1.460625,-4.493864 1.152888,-1.313067 2.546449,-1.860737 5.361071,-2.106903 2.656381,-0.232326 2.762354,-0.344331 3.084074,-3.259611 0.224355,-2.033002 0.533314,-2.656322 1.316652,-2.656322 0.988769,0 1.01023,0.119175 1.178688,6.545577 0.21412,8.168327 0.33362,9.310433 1.125753,10.759307 0.616924,1.128401 0.621969,1.15615 0.258876,1.423864 -0.469284,0.346012 -1.385238,0.593451 -3.845893,1.038947 -2.459676,0.445319 -4.164098,0.442923 -5.315961,-0.0075 z m 3.887676,-2.644224 c 0.659627,-0.619688 1.027731,-1.993485 1.159644,-4.327904 0.130819,-2.315046 -0.09598,-3.423785 -0.793877,-3.881068 -0.378521,-0.248017 -0.806,-0.289259 -2.227502,-0.214905 -2.127444,0.111279 -3.210358,0.561581 -3.963262,1.648022 -1.606988,2.318884 -1.275571,4.390238 1.01017,6.313562 0.887588,0.746856 1.82962,1.035518 3.165902,0.97011 0.925975,-0.04532 1.269109,-0.150999 1.648925,-0.507817 z"
         id="path194"
         transform="translate(55.874315,62.446052)" />
      <path
         style="fill:#000000;stroke-width:0.18806"
         d="m 70.584175,79.821117 c -1.987206,-0.653507 -3.79849,-2.121818 -4.709097,-3.817411 -0.570925,-1.063091 -0.639037,-1.347713 -0.644507,-2.693199 -0.0052,-1.281221 0.07352,-1.666665 0.530528,-2.59737 0.740864,-1.508786 2.189966,-2.9325 3.779811,-3.713591 1.161172,-0.570483 1.476852,-0.642155 2.820905,-0.640457 1.792694,0.0023 2.773193,0.402397 4.258578,1.737886 1.279453,1.150338 2.046335,2.514935 2.04861,3.645317 0.0015,0.747106 -0.08282,0.947745 -0.570967,1.358491 -0.784737,0.660313 -1.566005,0.831572 -4.410866,0.966887 -3.895788,0.185303 -5.359719,0.5753 -5.359719,1.42785 0,0.628876 0.688373,1.417348 1.64684,1.88631 0.827849,0.405054 1.091391,0.432921 3.665864,0.387637 1.906925,-0.03354 2.773889,0.01529 2.773889,0.156257 0,0.458794 -0.429677,0.948094 -1.259744,1.434545 -0.740625,0.434036 -1.126859,0.521675 -2.48834,0.564622 -0.886399,0.02796 -1.823202,-0.01874 -2.081785,-0.103774 z m 4.75727,-8.160473 c 0.61932,-0.406175 0.648273,-0.882256 0.08528,-1.402325 -0.597434,-0.551887 -1.680506,-0.800785 -3.489869,-0.802 -1.819553,-0.0012 -3.042158,0.263082 -3.593652,0.776877 -0.679411,0.632967 -0.453346,1.175173 0.661255,1.585989 1.110553,0.409324 5.644064,0.295903 6.336983,-0.158541 z"
         id="path196"
         transform="translate(55.874315,62.446052)" />
      <path
         style="fill:#000000;stroke-width:0.18806"
         d=""
         id="path198"
         transform="translate(55.874315,62.446052)" />
      <path
         style="fill:#000000;stroke-width:0.18806"
         d="m 85.685387,80.023687 c -2.026201,-0.723127 -3.485143,-2.211314 -4.226039,-4.31075 -0.533403,-1.511477 -0.422637,-3.66873 0.265476,-5.170314 0.986316,-2.152319 3.232382,-3.89728 5.467657,-4.247806 5.476265,-0.858762 9.389267,5.021296 6.811906,10.236234 -0.756241,1.530148 -1.676661,2.43462 -3.271683,3.214991 -1.362931,0.66682 -3.610432,0.790451 -5.047317,0.277645 z m 4.101431,-2.492277 c 1.478689,-0.754371 2.159128,-2.445936 2.001328,-4.975281 -0.113112,-1.813048 -0.466732,-2.604745 -1.291927,-2.892409 -0.822421,-0.286698 -4.650723,-0.264882 -5.233045,0.02982 -0.705353,0.356965 -1.116701,1.246292 -1.252551,2.70799 -0.163923,1.763744 0.145506,3.009254 0.99382,4.000318 1.391549,1.625713 3.044543,2.016138 4.782375,1.129562 z"
         id="path200"
         transform="translate(55.874315,62.446052)" />
      <path
         style="fill:#000000;stroke-width:0.18806"
         d="m 99.921584,79.867491 c -1.292915,-0.462533 -2.520009,-1.010919 -2.726875,-1.218634 l -0.376121,-0.377664 0.437482,-0.359411 c 0.253958,-0.208638 0.379751,-0.45282 0.299864,-0.58208 -0.101332,-0.163959 0.03125,-0.187155 0.50282,-0.08797 0.972238,0.204483 5.909146,0.124235 6.571966,-0.106825 1.26744,-0.441832 1.03123,-1.87169 -0.42563,-2.576537 -0.44242,-0.214043 -1.48475,-0.465204 -2.31629,-0.558135 -1.65062,-0.184467 -2.348002,-0.466518 -3.173418,-1.28346 -1.203288,-1.190936 -1.606039,-3.280762 -0.863737,-4.481831 0.482254,-0.780303 2.286925,-1.746275 3.740975,-2.002401 2.03309,-0.358122 5.46504,0.496781 5.63278,1.403134 0.0349,0.188704 -0.0855,0.507789 -0.2677,0.709078 -0.2999,0.331387 -0.55477,0.361172 -2.69635,0.315113 -2.05329,-0.04416 -2.46432,-0.0013 -3.11737,0.325254 -0.60614,0.303068 -0.76338,0.490607 -0.80955,0.96557 -0.0847,0.871428 0.566,1.271657 3.02263,1.859062 2.39371,0.572358 3.34039,0.99145 3.67016,1.624757 0.55341,1.062799 0.78506,2.327139 0.66638,3.637204 -0.10539,1.163439 -0.18989,1.383621 -0.72706,1.894662 -0.62523,0.59482 -3.53288,1.785819 -4.29019,1.7573 -0.22221,-0.0084 -1.46185,-0.39365 -2.754766,-0.856184 z"
         id="path202"
         transform="translate(55.874315,62.446052)" />
    </g>
    <path
       style="fill:#000000"
       id="path154"
       d="" />
  </g>
</svg>
