<?xml version="1.0" encoding="UTF-8" standalone="no"?>
<svg
   xmlns:dc="http://purl.org/dc/elements/1.1/"
   xmlns:cc="http://creativecommons.org/ns#"
   xmlns:rdf="http://www.w3.org/1999/02/22-rdf-syntax-ns#"
   xmlns:svg="http://www.w3.org/2000/svg"
   xmlns="http://www.w3.org/2000/svg"
   xmlns:sodipodi="http://sodipodi.sourceforge.net/DTD/sodipodi-0.dtd"
   xmlns:inkscape="http://www.inkscape.org/namespaces/inkscape"
   width="772.8764mm"
   height="206.13205mm"
   viewBox="0 0 772.87639 206.13205"
   version="1.1"
   id="svg139"
   inkscape:version="1.0.1 (3bc2e81, 2020-09-07)"
   sodipodi:docname="nuestroeq.svg">
  <defs
     id="defs133">
    <rect
       x="137.73035"
       y="142.56512"
       width="170.6219"
       height="35.820332"
       id="rect149" />
  </defs>
  <sodipodi:namedview
     id="base"
     pagecolor="#ffffff"
     bordercolor="#666666"
     borderopacity="1.0"
     inkscape:pageopacity="0.0"
     inkscape:pageshadow="2"
     inkscape:zoom="0.35355339"
     inkscape:cx="1665.3766"
     inkscape:cy="389.91995"
     inkscape:document-units="mm"
     inkscape:current-layer="layer1"
     inkscape:document-rotation="0"
     showgrid="false"
     inkscape:window-width="1832"
     inkscape:window-height="1009"
     inkscape:window-x="88"
     inkscape:window-y="34"
     inkscape:window-maximized="1" />
  <metadata
     id="metadata136">
    <rdf:RDF>
      <cc:Work
         rdf:about="">
        <dc:format>image/svg+xml</dc:format>
        <dc:type
           rdf:resource="http://purl.org/dc/dcmitype/StillImage" />
        <dc:title />
      </cc:Work>
    </rdf:RDF>
  </metadata>
  <g
     inkscape:label="Layer 1"
     inkscape:groupmode="layer"
     id="layer1"
     transform="translate(57.25446,-110.51016)">
    <g
       id="g162"
       style="fill:#000000"
       transform="matrix(1.3555714,0,0,1.5346326,20.35805,-59.082345)">
      <path
         style="fill:#000000;stroke-width:1.23097"
         d="m 471.32095,314.70586 c -0.71535,-1.36483 -1.30064,-3.52417 -1.30064,-4.79859 0,-1.27438 -2.19279,-4.50341 -4.87283,-7.17555 l -4.87283,-4.85845 v 3.36212 c 0,2.53291 -0.60092,3.36216 -2.43639,3.36216 -1.80333,0 -2.43644,-0.82925 -2.43644,-3.19146 0,-1.75531 -0.53627,-4.21473 -1.19178,-5.46538 -1.13375,-2.16309 -2.00938,-2.06611 -17.96856,1.99039 -21.12915,5.3706 -21.16317,5.38358 -17.69027,6.75094 3.21144,1.26445 3.70327,5.83592 0.75225,6.9922 -1.09377,0.42877 -2.96369,0.15742 -4.15538,-0.60246 -1.7019,-1.08519 -2.32311,-0.96546 -2.89576,0.55829 -0.62763,1.67001 -3.31204,1.87259 -19.29506,1.45601 -11.88052,-0.30981 -19.56528,-1.05177 -21.34112,-2.06089 -3.41015,-1.93787 -2.46633,-3.90751 1.9334,-4.03454 1.80296,-0.0523 5.12985,-0.77863 7.39307,-1.61465 l 4.11488,-1.52001 -5.02856,-2.01696 c -5.85765,-2.3494 -6.5852,-4.70476 -1.45324,-4.70476 1.96643,0 4.86568,-0.50095 6.4428,-1.1132 2.52784,-0.98134 2.86192,-1.90204 2.82029,-7.77268 -0.0369,-5.04061 -0.48741,-6.65982 -1.85789,-6.66105 -2.4931,-0.002 -3.079,-4.18799 -0.71582,-5.1139 3.48636,-1.36606 2.20688,-5.46406 -2.30725,-7.38994 -5.56973,-2.37622 -15.26667,-2.42371 -15.26667,-0.0747 0,2.10855 -3.88889,1.98031 -5.23792,-0.17301 -0.99629,-1.59017 -5.95793,-2.14722 -7.26228,-0.81536 -0.39827,0.40666 0.33059,2.50575 1.61972,4.66451 1.28915,2.15879 2.34598,6.11999 2.34851,8.80267 0.002,2.74636 0.86752,5.85127 1.97959,7.10594 1.9976,2.2539 1.44517,6.82038 -0.66406,5.48935 -0.62843,-0.39677 -1.49247,-0.14293 -1.92012,0.56336 -1.50809,2.49158 -3.04555,-0.20836 -3.05228,-5.35989 -0.0103,-6.67317 -1.89786,-13.59604 -4.66106,-17.08034 -1.6504,-2.08111 -3.42597,-2.71955 -7.40729,-2.66345 -6.45588,0.0907 -7.20075,0.76455 -4.37332,3.95471 1.9953,2.25125 2.06669,3.17998 0.71728,9.3367 -0.82412,3.76021 -2.00728,6.83678 -2.62924,6.83678 -0.62195,0 -1.13085,2.25284 -1.13085,5.00629 0,4.31459 -0.46289,5.1873 -3.35003,6.31631 -6.41752,2.50944 -9.65949,-3.67527 -5.85959,-11.17822 1.96493,-3.87988 2.64115,-16.9444 0.93285,-18.02245 -1.67074,-1.05437 -10.5312,3.75901 -12.19824,6.62649 -1.41578,2.43536 -1.31427,2.81429 0.91368,3.40917 1.62295,0.43347 2.50649,1.68844 2.50649,3.56047 0,3.76107 -1.72581,4.75615 -4.82327,2.781 -4.30946,-2.74803 -3.30689,-9.03426 2.38685,-14.96511 2.68003,-2.7917 4.87279,-5.79461 4.87279,-6.67313 0,-0.87852 1.08701,-2.37476 2.41556,-3.32493 2.31871,-1.65829 2.344,-2.0727 0.63028,-10.33256 -0.98193,-4.73269 -1.79482,-10.58126 -1.80647,-12.99677 -0.0185,-3.77457 -0.55985,-4.5995 -3.85429,-5.86916 -4.77248,-1.83938 -5.91248,-1.15789 -5.91248,3.5344 0,4.41122 -3.80675,12.3827 -11.52707,24.13843 -3.11495,4.74312 -6.54514,11.86165 -7.62268,15.81905 -1.44266,5.29819 -2.52722,7.1952 -4.11375,7.1952 -2.45181,0 -4.36291,4.62972 -2.63814,6.39087 0.62744,0.64071 5.88975,1.50709 11.69394,1.92536 8.90366,0.64158 10.55309,1.09667 10.55309,2.91175 0,1.18315 1.13198,2.91921 2.51557,3.8578 1.68478,1.14294 2.24525,2.42555 1.69697,3.88337 -1.43131,3.80605 -5.80557,2.01702 -6.85338,-2.80301 -0.2224,-1.02384 -0.95286,-2.27278 -1.62287,-2.7754 -1.47272,-1.10475 -15.4694,-1.25646 -18.17342,-0.19694 -2.75983,1.08135 -2.37639,5.31597 0.71259,7.87 3.29771,2.72653 2.24138,6.30153 -1.86184,6.30153 -2.9751,0 -4.43235,-2.03381 -4.43235,-6.18606 0,-2.73541 -8.21409,-6.42877 -12.03104,-5.40957 -1.43022,0.38173 -3.28269,0.12075 -4.11666,-0.5804 -1.0223,-0.85948 -5.28613,-0.88515 -13.08918,-0.079 -14.07277,1.45435 -15.53397,1.86646 -13.60396,3.83719 0.78209,0.7985 1.42192,2.80784 1.42192,4.46508 0,2.35915 -0.34991,2.71658 -1.61262,1.64667 -1.13914,-0.96531 -1.99305,-0.97824 -2.90805,-0.0424 -1.76553,1.80269 -2.63132,0.0527 -3.04997,-6.16554 -0.20955,-3.11112 -0.95299,-5.16446 -1.87043,-5.16554 -2.76554,-0.004 -1.58417,-4.72326 2.13185,-8.51762 3.86075,-3.94211 4.80591,-7.65466 1.94879,-7.65466 -1.05883,0 -2.26371,-2.47673 -3.17689,-6.53038 -0.80903,-3.59166 -4.44721,-12.68756 -8.08471,-20.21302 -4.34623,-8.99162 -6.86679,-15.93455 -7.35194,-20.2509 -0.67729,-6.02586 -0.42912,-6.96122 3.00706,-11.32708 3.63467,-4.61814 3.69541,-4.90196 2.05489,-9.60215 -0.92978,-2.6639 -1.74931,-4.28368 -1.82119,-3.59955 -0.0717,0.68413 -0.69774,-0.15566 -1.39088,-1.86579 l -1.26017,-3.1097 -1.18224,3.1097 c -0.6502,1.71033 -1.39593,7.29818 -1.65706,12.41739 -0.51006,9.99708 -2.45651,13.21177 -7.23248,11.94486 -3.24208,-0.86004 -20.14497,1.78664 -20.14497,3.15429 0,0.60096 -0.86582,1.09265 -1.92409,1.09265 -1.4408,0 -1.76459,0.85923 -1.28914,3.42065 0.34947,1.88141 0.99484,8.91517 1.43473,15.63067 0.75196,11.48015 0.92596,12.09337 2.91075,10.25932 2.4826,-2.29409 3.7406,-1.41443 3.7406,2.6156 0,2.86472 0.17416,2.90237 13.40022,2.90237 h 13.40027 l -0.0282,3.42069 c -0.037,4.66674 -3.90636,9.65235 -6.65539,8.57524 -1.38875,-0.54417 -1.90269,-1.68512 -1.48814,-3.30387 0.59078,-2.30659 0.0126,-2.47264 -8.578,-2.47264 -9.19819,0 -9.20809,0.004 -6.95935,2.54081 2.8943,3.2656 5.34404,10.5232 4.19359,12.42393 -0.66983,1.10661 -1.10612,1.11513 -1.76039,0.0329 -0.65643,-1.08449 -1.29149,-1.0797 -2.58869,0.0198 -1.41142,1.19615 -1.72152,0.81764 -1.73389,-2.11637 -0.009,-2.70308 -1.0453,-4.25432 -4.24662,-6.37168 -4.37574,-2.89412 -9.92112,-3.85412 -8.47655,-1.46745 0.4434,0.73221 1.295,5.30927 1.89288,10.17119 1.20665,9.81251 -0.29568,13.3751 -5.64004,13.3751 -4.92785,0 -6.08942,-3.13481 -5.62243,-15.17404 l 0.42912,-11.05856 -3.47449,0.8022 c -12.56603,2.90154 -12.57624,2.9071 -11.87271,6.49878 0.58777,3.00095 0.29788,3.38313 -2.56685,3.38313 -3.10911,0 -3.20061,-0.19694 -2.45316,-5.28649 0.90638,-6.17151 0.31229,-6.49768 -3.52886,-1.93787 l -2.82088,3.34857 -5.03903,-4.07505 c -2.77146,-2.2413 -5.03904,-4.59602 -5.03904,-5.23272 0,-0.63673 1.61567,-2.1609 3.59033,-3.38708 7.78274,-4.83267 18.98266,-27.55386 18.09833,-36.71575 -0.28127,-2.91714 -1.09858,-4.00703 -3.4156,-4.55642 -2.41623,-0.57286 -3.33858,-1.92396 -4.46403,-6.53883 -0.78019,-3.19921 -3.23657,-9.19343 -5.45856,-13.32045 l -4.0399,-7.50419 H 122.0128 c -8.85095,0 -16.40553,0.51697 -16.78796,1.14876 -0.87831,1.45105 6.43732,6.86049 9.68805,7.16376 4.30114,0.4015 11.65378,4.13778 12.48033,6.34235 0.44063,1.17566 1.90473,3.05131 3.25327,4.16816 2.12052,1.75626 2.25551,2.47067 0.99902,5.28649 -2.42551,5.43557 -10.55254,3.76397 -17.16505,-3.53052 -1.57783,-1.74055 -3.24668,-3.16471 -3.70848,-3.16471 -0.46185,0 -3.0545,2.10881 -5.76152,4.68627 l -4.92174,4.6862 -0.725398,12.41715 c -0.956666,16.37726 1.043458,26.96793 5.284378,27.98021 4.12535,0.98468 4.9758,9.07797 1.17228,11.15646 -1.39172,0.76052 -3.06725,1.04396 -3.72344,0.62988 -1.60564,-1.01326 -1.52622,-5.58154 0.0972,-5.58154 0.70956,0 0.95133,-0.55978 0.53723,-1.24391 -1.16322,-1.9218 -4.263712,-1.46948 -4.263712,0.62193 0,1.02624 -0.822267,1.86584 -1.827328,1.86584 -2.227069,0 -2.228772,0.21494 -0.0663,8.50978 0.952571,3.65415 1.433804,7.43728 1.069383,8.40692 -0.803118,2.13701 -4.95241,3.32407 -9.687684,2.7715 -3.915673,-0.45698 -4.053432,-1.32595 -2.430394,-15.33464 0.475573,-4.10476 0.373403,-8.20344 -0.227432,-9.10805 -1.335781,-2.01177 -9.152622,-3.93963 -12.427847,-3.06511 -3.025073,0.80779 -7.293754,7.75114 -7.293754,11.86396 0,3.59884 -3.979347,5.39499 -6.119398,2.7621 -1.013577,-1.24711 -0.267965,-3.19594 3.08972,-8.07331 2.434167,-3.53616 4.166786,-6.69388 3.850199,-7.01708 -0.316312,-0.32345 -7.208989,-0.19145 -15.316498,0.29288 -14.184731,0.84717 -14.740876,0.98521 -14.740876,3.65839 0,2.13395 -0.706106,2.77799 -3.045517,2.77799 -3.404374,0 -3.751718,-1.39675 -1.538232,-6.18593 1.680089,-3.63514 5.039108,-4.698 14.847098,-4.698 6.600447,0 9.227902,-1.48236 9.227902,-5.20615 0,-2.09892 0.336571,-2.08528 6.136112,0.24871 3.374859,1.35829 6.310795,2.46963 6.524296,2.46963 0.21362,0 0.719733,-4.05819 1.124998,-9.01814 0.405173,-4.95999 1.117217,-12.02811 1.582107,-15.70701 l 0.84529,-6.68889 -4.451789,0.53069 c -2.448487,0.29194 -4.45179,0.1561 -4.45179,-0.30182 0,-0.4579 -2.489096,-1.11881 -5.531344,-1.46891 -3.042251,-0.35025 -6.511632,-1.54245 -7.709702,-2.64955 -1.198068,-1.10711 -3.094507,-2.01294 -4.214302,-2.01294 -1.751638,0 -2.035903,-1.56327 -2.035903,-11.19493 V 206.33053 H 27.302144 c -8.990371,0 -17.076192,-0.27266 -17.9685384,-0.60566 -1.0601249,-0.39586 -2.9944578,2.38005 -5.5815334,8.00946 -2.1775275,4.73829 -3.95918111,9.17122 -3.95918111,9.85091 0,1.67432 1.71604291,2.13167 20.70948291,5.51955 23.815737,4.24806 27.780583,7.03763 23.63272,16.62762 -1.131354,2.61574 -1.936774,6.02932 -1.789805,7.58583 0.17312,1.83369 -1.294713,4.42481 -4.169275,7.35994 -2.440014,2.4915 -6.817538,9.664 -9.727787,15.93894 -4.509155,9.72247 -5.712658,11.39259 -8.141345,11.29823 -2.308889,-0.0898 -2.918533,0.6029 -3.210995,3.64769 -0.333809,3.475 0.217316,4.06118 7.309224,7.77472 4.218633,2.209 8.288315,4.01613 9.043779,4.01584 0.75551,-2.4e-4 2.002936,0.77378 2.772074,1.7201 2.095479,2.57813 -0.792666,3.25498 -13.889415,3.25498 -7.53502,0 -11.530484,0.48611 -11.842143,1.44088 -0.258755,0.79251 -1.5935272,1.61594 -2.9662812,1.82983 -2.3622935,0.36813 -2.5406618,-0.42169 -3.3342009,-14.75846 -0.461116,-8.33105 -1.0872925,-15.40152 -1.3915391,-15.71219 -0.3043289,-0.31076 -1.5466088,0.35306 -2.76088522,1.47527 -2.00587988,1.85356 -2.38250538,1.8616 -4.11973218,0.0878 -1.7351533,-1.77174 -2.252715,-1.77239 -5.5957576,-0.009 -8.7481428,4.61924 -16.6445428,18.73272 -13.6632078,24.42073 0.726042,1.3853 0.9883,3.06684 0.582756,3.73688 -0.964266,1.59311 -5.009776,1.55517 -7.992769,-0.0749 -2.205751,-1.20535 -2.328086,-2.40785 -1.803435,-17.72528 l 0.56287,-16.432 7.669967,-0.70523 c 8.094062,-0.74415 9.442273,-1.32586 21.4304636,-9.24581 l 7.5312394,-4.97549 0.013796,-6.50673 c 0.013796,-7.74196 0.9670769,-7.34551 -20.086947,-8.37263 -8.040147,-0.3921 -17.907624,-0.99546 -21.927676,-1.34053 -11.479326,-0.98534 -11.253673,-1.44761 -14.049457,28.77877 -1.317962,14.24911 -2.39632,28.27446 -2.39632,31.1675 0,4.88346 -1.625528,7.8933 -3.325501,6.15744 -0.399649,-0.40806 0.22145,-14.59788 1.380761,-31.53248 1.159346,-16.93458 2.181949,-32.46942 2.272561,-34.52181 0.0907,-2.05239 0.502596,-4.01151 0.915597,-4.35358 1.776774,-1.47169 7.593352,-19.86101 8.262212,-26.12147 1.072462,-10.03803 0.655228,-19.60738 -1.036784,-23.77829 -1.819915,-4.48631 -1.213675,-5.26329 2.869686,-3.67806 5.72555,2.22272 5.881909,15.30656 0.446148,37.32292 -1.863751,7.54851 -2.377813,11.67957 -1.557612,12.5171 0.67337,0.68751 3.600788,1.25003 6.505416,1.25003 4.655482,0 5.145738,-0.2581 4.138289,-2.18037 -1.304199,-2.48833 -1.828852,-7.40083 -1.563001,-14.6345 0.156985,-4.26734 1.250465,-6.1714 7.481053,-13.02516 6.139245,-6.75326 7.486123,-9.06991 8.486851,-14.59747 0.654263,-3.61364 1.755965,-7.651 2.448304,-8.97188 0.692337,-1.3209 1.258751,-7.0717 1.258751,-12.77962 0,-7.373 0.548273,-11.17724 1.893585,-13.13836 2.900761,-4.22877 9.090098,-22.41419 10.4262929,-30.63456 1.66641068,-10.25179 2.96015751,-12.36954 6.9746827,-11.41639 1.7832206,0.4231 6.9030844,0.89892 11.3773864,1.05685 6.038044,0.21296 9.013117,0.9567 11.540751,2.88456 4.483651,3.41975 5.933524,10.23228 3.462707,16.27041 -1.001005,2.44625 -1.820054,5.46435 -1.820054,6.70678 0,1.2425 -1.584731,4.03079 -3.521689,6.19615 -2.924471,3.26942 -4.12139,3.80259 -7.057833,3.14403 -2.781834,-0.62386 -4.129539,-0.14798 -6.318394,2.23098 l -2.7822932,3.02405 5.1044412,9.76818 c 5.765286,11.03277 10.868531,17.10245 16.808224,19.99143 3.711429,1.80511 3.99413,2.33173 3.294837,6.13766 -0.731427,3.98117 -0.602742,4.16311 2.944961,4.16311 3.76576,0 4.611927,-1.0346 2.594257,-3.17189 -1.790494,-1.89664 -1.92549,-8.39663 -0.239868,-11.55024 0.854086,-1.59787 1.291029,-3.17258 0.971035,-3.49932 -1.301113,-1.32856 3.147595,-16.32132 6.219586,-20.96078 4.252105,-6.42169 4.429137,-6.53448 12.993201,-8.2771 9.900119,-2.01454 13.372082,-5.77067 12.35556,-13.36687 -0.576357,-4.30708 -0.08977,-6.86056 2.283148,-11.98227 1.658584,-3.57985 3.896979,-6.85415 4.974231,-7.27622 5.381342,-2.10853 11.941594,0.70299 13.897613,5.95604 1.53298,4.1171 -1.288496,14.61885 -5.198045,19.34721 -4.46795,5.40389 -4.02857,9.65997 1.310504,12.69332 2.192767,1.24578 4.385536,2.20305 4.872802,2.12722 5.223872,-0.8129 6.71519,1.37913 12.55165,18.44979 2.0569,6.01595 4.56741,13.31703 5.57886,16.22462 l 1.83908,5.28649 h 15.58358 c 15.34804,0 15.58368,-0.0424 15.5859,-2.79876 10e-4,-1.5393 2.04778,-11.19491 4.54789,-21.45691 3.39521,-13.93595 4.65068,-21.90855 4.96049,-31.50094 0.35915,-11.12379 0.83669,-13.5779 3.56696,-18.33489 3.64141,-6.34452 7.87885,-8.1262 12.7248,-5.35025 4.23588,2.42642 8.8118,11.25759 9.13464,17.62898 0.66908,13.20557 0.0187,12.05761 6.82466,12.05761 4.75559,0 6.28798,0.48785 6.83726,2.17679 0.38952,1.19723 2.90542,6.93461 5.59124,12.74977 3.67548,7.95795 9.13125,27.17809 9.44495,33.27374 0.009,0.17104 0.8572,0.31076 1.8853,0.31076 1.54988,0 1.72525,-1.1158 1.02641,-6.53035 -0.9304,-7.20921 -0.92285,-7.05008 -0.65116,-13.75278 0.22333,-5.50624 4.48326,-10.17738 13.49311,-14.79491 7.29059,-3.73644 13.94053,-9.4594 14.76754,-12.70902 0.5639,-2.21548 2.22588,-2.81804 11.49273,-4.16666 5.95844,-0.8671 10.98198,-1.72817 11.16344,-1.91341 0.18136,-0.1853 -0.36927,-2.41406 -1.22428,-4.95283 -1.96468,-5.83529 -0.79089,-16.0875 2.23236,-19.49855 4.7878,-5.402 14.11658,-5.68342 19.50088,-0.58828 2.69094,2.54646 3.07657,3.93997 3.07657,11.11772 0,4.95849 -0.74294,9.67335 -1.87711,11.9128 -1.92508,3.80123 -1.53183,6.12459 1.03533,6.1166 0.79798,-0.002 5.97345,2.07283 11.50103,4.6118 8.99323,4.13089 10.05022,4.96987 10.05022,7.97756 0,1.84869 1.64455,8.49991 3.65461,14.78049 2.01004,6.28057 3.65459,12.92531 3.65459,14.766 0,2.62064 0.84309,3.67169 3.88589,4.84444 3.4194,1.3179 4.15628,1.20131 6.13849,-0.97115 1.26082,-1.3819 3.83049,-2.46887 5.83654,-2.46887 2.71727,0 3.73677,-0.67675 4.21588,-2.79872 0.69088,-3.05968 3.06641,-28.51357 3.06808,-32.87396 0.001,-4.43308 3.2223,-6.6192 9.75158,-6.6192 6.66996,0 6.24847,0.64369 8.55302,-13.06073 2.06168,-12.26003 3.69525,-14.5363 10.09133,-14.0616 4.72104,0.35023 5.31471,0.80879 7.88066,6.08551 1.5262,3.13868 3.11507,8.63926 3.53084,12.22361 0.41577,3.58431 1.46976,7.24583 2.34228,8.13674 0.87249,0.89088 1.96113,3.22676 2.41924,5.19076 0.4581,1.964 1.71853,4.60882 2.80108,5.87735 2.07195,2.42799 2.64236,15.55521 1.35912,31.27831 l -0.60908,7.46326 3.9722,0.39068 c 2.61848,0.25764 5.05992,-0.48283 7.16373,-2.17256 4.80616,-3.8602 11.52529,-5.32864 17.71379,-3.87131 8.01932,1.88852 13.10825,1.54663 17.41275,-1.16976 2.62552,-1.65686 5.71691,-2.38914 9.39588,-2.22564 9.03033,0.4015 16.26427,-7.23516 26.11888,-27.57219 1.80361,-3.72219 4.83582,-8.32121 6.73823,-10.22009 4.16403,-4.15627 4.21549,-4.49579 0.75888,-5.00467 -2.03234,-0.29899 -2.97964,-1.62808 -3.83037,-5.37299 -0.6216,-2.73657 -1.65596,-5.32415 -2.29848,-5.75028 -0.74417,-0.49342 -0.73874,-1.62235 0.0123,-3.10965 0.65084,-1.28424 1.46237,-4.99378 1.8035,-8.2434 0.47184,-4.49504 0.21863,-5.90846 -1.05745,-5.90846 -2.66586,0 -1.94575,-2.43758 1.06331,-3.59922 13.30922,-5.13794 19.28939,-5.19443 24.15324,-0.22801 4.51959,4.61492 4.76396,11.70022 0.7111,20.61971 -1.9092,4.20176 -2.553,7.2282 -1.98457,9.32907 1.3647,5.04362 9.36716,17.73856 10.25603,16.26999 1.17238,-1.93697 3.10576,-1.65217 3.10576,0.45744 0,0.9905 -2.68555,10.08636 -5.96781,20.21305 -11.81216,36.44334 -12.88163,43.44924 -9.17385,60.09476 1.05225,4.72394 1.73752,10.15204 1.52278,12.06241 l -0.39043,3.47339 -11.40291,0.35965 c -7.99315,0.25198 -11.93509,0.90287 -13.18271,2.17679 -0.97885,0.99947 -2.69997,1.81608 -3.82463,1.81459 -1.80388,-0.002 -1.99943,1.4635 -1.65937,12.43877 l 0.38535,12.44151 h 5.15736 c 2.83658,0 5.71411,0.56847 6.39459,1.26327 0.68039,0.69483 7.23129,2.38647 14.55752,3.7593 18.98764,3.55791 18.80224,3.49978 18.80224,5.89685 0,1.19066 1.09643,2.86397 2.43644,3.71847 3.51517,2.24154 3.21366,6.50809 -0.45998,6.50809 -3.56541,0 -6.12272,-2.92156 -5.3157,-6.07284 0.5107,-1.99375 -0.2606,-2.46384 -5.03356,-3.06851 -17.02292,-2.15662 -20.86415,-2.33527 -20.86415,-0.97034 0,1.98689 -4.55433,1.74956 -5.72593,-0.29855 -1.0414,-1.82048 -6.45608,-4.0037 -6.45608,-2.60315 0,0.46028 1.37049,2.50024 3.04549,4.5329 1.67505,2.03258 3.04554,4.9193 3.04554,6.41493 0,1.62698 1.10105,3.21258 2.74093,3.94718 3.74816,1.67906 3.80721,7.29225 0.0824,7.83369 -1.67819,0.24401 -3.13811,-0.52855 -3.95915,-2.09498 z m -51.55158,-19.13927 c 0.83753,-0.67359 1.52277,-2.51095 1.52277,-4.08311 0,-2.62288 0.67742,-2.92236 8.22288,-3.63512 4.52258,-0.42734 11.51203,-1.17202 15.53209,-1.65508 l 7.30922,-0.87824 v -11.49745 c 0,-7.68301 -0.45489,-11.49978 -1.37045,-11.50468 -0.75375,-0.004 -1.69944,1.67197 -2.10144,3.72436 -1.20636,6.15884 -7.5593,4.73978 -8.29567,-1.85306 -0.28878,-2.58645 -1.61138,-4.46966 -4.36483,-6.21533 -2.17269,-1.37753 -4.27446,-3.70967 -4.67067,-5.18264 -0.52988,-1.97006 -1.9009,-2.82114 -5.18618,-3.21934 -2.45624,-0.29759 -5.4252,-0.97166 -6.59772,-1.49763 -1.89692,-0.85099 -2.13184,-0.13766 -2.13184,6.47384 0,4.08654 -1.37048,14.85641 -3.04553,23.93297 -3.83342,20.77237 -3.84341,20.14409 0.30476,19.13232 1.84256,-0.44943 4.0353,-1.36826 4.87283,-2.04181 z m 8.2229,-2.16395 c 0.41394,-0.68413 -0.40838,-1.2439 -1.82732,-1.2439 -1.41914,0 -2.2414,0.55977 -1.82729,1.2439 0.41391,0.68413 1.23638,1.24387 1.82729,1.24387 0.59096,0 1.41322,-0.55974 1.82732,-1.24387 z m -168.91266,-2.06269 c 1.78025,-0.44426 3.63966,-1.42161 4.13189,-2.17147 1.62095,-2.46915 1.0946,-33.8909 -0.59046,-35.24688 -0.8375,-0.67397 -4.85723,-1.56378 -8.93273,-1.97731 -4.07548,-0.4137 -8.34084,-1.11669 -9.4786,-1.56248 -1.82015,-0.71317 -1.97166,-0.15742 -1.26123,4.62373 0.44431,2.98887 1.55739,7.32179 2.47395,9.62882 0.91656,2.30695 1.66649,5.53395 1.66649,7.17108 0,2.44425 2.09927,12.03734 4.41413,20.1714 0.27408,0.96276 1.30581,1.36003 2.40946,0.92761 1.06159,-0.41607 3.38679,-1.11999 5.1671,-1.5645 z m 17.34705,-9.6503 c 2.91923,-11.53111 4.16043,-15.19557 5.67114,-16.7429 1.41752,-1.45185 1.29094,-2.12656 -0.83179,-4.43372 -3.12197,-3.39319 -3.11354,-3.74983 0.16246,-6.86607 l 2.66611,-2.53625 h -2.72662 c -1.49964,0 -4.34396,0.85402 -6.32076,1.89776 l -3.5941,1.89776 v 16.55315 c 0,9.10422 0.38075,16.94191 0.84621,17.41711 1.03784,1.0597 2.82959,-2.0601 4.12748,-7.18684 z m -115.83023,-5.70133 c 0,-0.68413 -0.82228,-1.24386 -1.8273,-1.24386 -1.00501,0 -1.82733,0.55973 -1.82733,1.24386 0,0.68413 0.82232,1.24386 1.82733,1.24386 1.00502,0 1.8273,-0.55973 1.8273,-1.24386 z m 233.91789,-23.01177 c 4.66525,-24.78772 5.61904,-27.87448 9.02168,-29.1954 3.73556,-1.45016 25.28003,-4.84701 34.32154,-5.41131 8.87339,-0.5538 9.97386,-1.14561 12.18668,-6.5532 2.82484,-6.90322 3.03909,-6.73256 -10.78358,-8.59144 -4.75775,-0.63984 -5.78647,-0.433 -5.78647,1.16384 0,1.69219 -2.98598,1.94202 -23.208,1.94202 H 387.0581 l -1.93046,4.66456 c -1.0617,2.56553 -2.20141,7.04349 -2.53263,9.95104 -0.33106,2.90756 -1.04277,5.28649 -1.58113,5.28649 -0.53839,0 -1.15231,1.53929 -1.36434,3.42065 -0.378,3.35586 -0.54697,3.42281 -8.91288,3.53311 -11.04621,0.14578 -18.37751,1.49956 -20.18905,3.72834 -0.95466,1.17448 -1.14735,3.57579 -0.56625,7.05506 0.48454,2.90103 1.24128,8.07331 1.68161,11.49401 0.44017,3.42065 1.34881,6.19021 2.01884,6.15458 0.66998,-0.0375 3.31167,-0.52498 5.87035,-1.08741 3.9484,-0.8679 4.911,-0.64518 6.3635,1.47222 1.21243,1.7675 3.76261,2.75655 8.74686,3.3924 8.57019,1.09338 13.27489,3.42359 14.45172,7.15788 1.11063,3.52441 0.92655,4.19175 5.40008,-19.57744 z M 375.9121,239.24952 c -0.56337,-3.00934 -0.48603,-3.05757 1.68528,-1.05111 2.69341,2.48886 2.93436,4.20516 0.5905,4.20516 -0.92694,0 -1.95098,-1.41933 -2.27578,-3.15405 z m -207.57799,22.74517 c -0.85247,-4.95999 -1.58915,-10.69738 -1.63704,-12.74977 -0.0843,-3.61421 -0.14628,-3.65338 -1.97282,-1.24386 -2.97834,3.92914 -7.40329,13.30954 -8.31885,17.635 -0.90425,4.27219 -0.10462,4.69808 9.74847,5.19034 l 3.73018,0.18619 z m -87.119839,4.47425 c 2.823685,-0.77196 2.840124,-0.8845 2.037974,-13.97666 -1.045806,-17.0693 -1.265889,-17.78902 -5.293722,-17.31336 -2.789384,0.32958 -3.235994,0.95144 -3.177796,4.42593 0.510057,30.46883 0.06399,28.60552 6.433544,26.86409 z m 263.876939,-4.47425 c 1.0691,-3.54077 1.6726,-19.60043 0.71376,-18.99538 -2.06308,1.30193 -4.91431,-0.92511 -4.91431,-3.83855 0,-1.81661 -0.71212,-2.97661 -1.82734,-2.97661 -1.29788,0 -1.82979,1.35149 -1.83594,4.66456 -0.004,2.56549 -0.35402,8.39827 -0.7762,12.96166 l -0.76752,8.2971 3.5171,0.53466 c 1.93449,0.29383 3.94552,0.61851 4.46907,0.72099 0.52354,0.10254 1.16317,-0.51327 1.42138,-1.36843 z m 17.72713,0.31075 c 0,-1.55848 -1.29284,-1.55848 -3.65461,0 -1.47764,0.97504 -1.3028,1.2094 0.91362,1.22481 1.50756,0.009 2.74099,-0.54067 2.74099,-1.22481 z M 210.54281,224.83672 c 0,-3.55194 -2.64911,-5.003 -4.26372,-2.33544 -0.4139,0.68413 -0.12905,1.24386 0.634,1.24386 0.92918,0 1.10167,1.32604 0.52255,4.01824 -0.77799,3.61682 -0.66598,3.8501 1.12141,2.33544 1.09216,-0.92553 1.98576,-3.29347 1.98576,-5.2621 z m -54.90365,-3.41819 c 3.77183,-7.1963 3.49748,-15.08771 -0.52456,-15.08771 -1.15414,0 -4.26379,11.62126 -4.26379,15.93435 0,2.3334 3.44041,1.7251 4.78835,-0.84664 z m -5.71449,-7.31346 c 0.76383,-6.37811 0.0323,-7.77425 -4.07702,-7.77425 -1.93836,0 -3.52429,0.26515 -3.52429,0.58869 0,1.44334 5.44528,11.85012 6.20053,11.85012 0.46316,0 1.09353,-2.09907 1.40078,-4.66456 z m 164.74331,-2.73694 c 2.35784,-4.65562 2.33231,-5.03731 -0.33656,-5.03731 -1.67338,0 -2.22373,1.03456 -2.31583,4.3536 -0.14723,5.3053 0.25872,5.40997 2.6522,0.68371 z M 18.310184,197.37488 c -0.803991,-0.82094 -1.461845,-2.46713 -1.461845,-3.65821 0,-3.2741 -2.594212,-4.23208 -4.448521,-1.64271 -3.1223616,4.36006 -2.096123,6.79358 2.864849,6.79358 3.505708,0 4.182487,-0.33193 3.045517,-1.49266 z m 141.482066,-0.0621 c -0.52139,-0.85516 -0.78052,-2.87699 -0.57589,-4.49297 0.47347,-3.73949 -2.29542,-3.03571 -4.33211,1.10108 -1.80834,3.67297 -1.08467,4.94673 2.81042,4.94673 2.12988,0 2.76053,-0.4673 2.09758,-1.55484 z m 78.10358,-4.0909 c 0.45628,-3.1052 0.44938,-8.75007 -0.0126,-12.5442 l -0.84415,-6.89841 -5.32631,5.3376 c -6.06972,6.0825 -7.33105,8.96917 -5.5696,12.74671 0.67977,1.45775 1.54252,3.63004 1.91723,4.82727 0.4735,1.51286 1.9513,2.17677 4.84498,2.17677 4.00603,0 4.195,-0.21385 4.99276,-5.64574 z m 80.45804,4.40188 c -0.41394,-0.68413 -1.26873,-1.24386 -1.89922,-1.24386 -0.63047,0 -1.14627,0.55973 -1.14627,1.24386 0,0.68413 0.85462,1.24386 1.8992,1.24386 1.04457,0 1.56037,-0.55973 1.14629,-1.24386 z m 46.51158,-33.80226 c 3.89696,-3.85671 4.04804,-3.89586 6.45354,-1.673 2.44422,2.25857 2.46319,2.22252 2.46319,-4.68458 0,-7.91343 4.18556,3.478 2.34213,8.8776 -0.68749,2.01375 -6.15729,2.31603 -8.19756,3.39334 -3.48515,1.84021 -19.0554,8.19929 -18.98023,-1.71498 0.0124,-1.54052 -9.14881,-7.3955 -0.80555,-12.28436 2.75709,-1.61554 2.24,-3.58975 0.32459,-1.97801 -4.18589,3.52211 5.72192,2.29779 8.58386,8.29673 1.49795,3.13974 2.97151,5.71041 3.27463,5.71251 0.30287,0.002 2.34678,-1.77322 4.54148,-3.94525 z M 50.95804,241.22975 c 0,-1.13944 6.050012,-3.01441 6.906077,-2.14035 0.290079,0.29618 -1.145025,1.13404 -3.18926,1.86167 -2.044237,0.72767 -3.716817,0.85303 -3.716817,0.27879 z"
         id="path122"
         sodipodi:nodetypes="ssscssssssssssssscsssscsssssscssscsssssssssssssssssssssssssssssssssssssssssscssssssssscsssssssssscsssscssscssssscssssscssssssscssssssssscsssssssssssssssssssssssssssscsssssscssssssssssssssssssssscsssscsscssssssssssssssssssssssssssssssscsssssssssscssssssscsssssssssscssssssssssssssssssssscssssssssscsssssssssssssssssssssscsssscssssssssssssssssssssscscsssssssssssssssssssssssssssssscsscssssssssssssssscssssssssssssssssssscssscsssssssssscscssssscsssssssssssssssssssssssssssssssccssssssssssssssssssssssssss" />
    </g>
  </g>
</svg>
